<svg width="540" height="86" viewBox="0 0 540 86" fill="none" xmlns="http://www.w3.org/2000/svg">
<g clip-path="url(#clip0_811_11)">
<path d="M540 0H0V85.57H540V0Z" fill="#C8D267"/>
<path d="M25.89 20.88C28.43 20.88 30.62 21.23 32.47 21.94C34.32 22.65 35.89 23.64 37.18 24.93C38.39 26.18 39.33 27.63 40.02 29.28C40.71 30.93 41.05 32.76 41.05 34.77C41.05 36.78 40.72 38.69 40.05 40.35C39.39 42.02 38.44 43.45 37.21 44.64C35.98 45.83 34.47 46.75 32.68 47.42C30.89 48.08 28.87 48.42 26.61 48.42H15.98V64.06H6.92999V20.88H25.89ZM25.05 41.28C27.34 41.28 29.09 40.7 30.27 39.53C31.46 38.36 32.05 36.79 32.05 34.82C32.05 32.85 31.45 31.2 30.24 30.11C29.03 29.02 27.34 28.48 25.17 28.48H15.99V41.28H25.05Z" fill="#F05C2F" stroke="black" stroke-width="1.65"/>
<path d="M55.04 20.88V56.75H75.33V64.06H46.29V20.88H55.04Z" fill="#F05C2F" stroke="black" stroke-width="1.65"/>
<path d="M80.42 20.88H90.26L98.23 34.53H98.35L106.32 20.88H115.86L103.18 41.41L117.49 64.05H107.29L98.47 48.29H98.35L89.41 64.05H79.39L93.34 41.47L80.42 20.88Z" fill="#F05C2F" stroke="black" stroke-width="1.65"/>
<path d="M195.64 63.32C193.06 62.19 190.87 60.63 189.06 58.64C187.25 56.65 185.86 54.27 184.89 51.52C183.92 48.76 183.44 45.77 183.44 42.55C183.44 39.33 183.92 36.34 184.89 33.58C185.86 30.82 187.24 28.44 189.06 26.42C190.87 24.41 193.06 22.84 195.64 21.71C198.22 20.58 201.09 20.02 204.27 20.02C207.45 20.02 210.32 20.58 212.87 21.71C215.43 22.84 217.61 24.41 219.42 26.42C221.23 28.43 222.62 30.82 223.59 33.58C224.56 36.34 225.04 39.33 225.04 42.55C225.04 45.77 224.56 48.76 223.59 51.52C222.62 54.28 221.24 56.65 219.42 58.64C217.61 60.63 215.42 62.19 212.87 63.32C210.32 64.45 207.45 65.01 204.27 65.01C201.09 65.01 198.21 64.45 195.64 63.32ZM209.49 56.65C210.96 55.86 212.19 54.79 213.17 53.42C214.16 52.05 214.89 50.43 215.37 48.56C215.85 46.69 216.09 44.69 216.09 42.55C216.09 40.41 215.85 38.36 215.37 36.51C214.89 34.66 214.15 33.04 213.17 31.65C212.19 30.26 210.96 29.17 209.49 28.39C208.02 27.61 206.3 27.21 204.33 27.21C202.36 27.21 200.63 27.6 199.14 28.39C197.65 29.18 196.4 30.26 195.4 31.65C194.4 33.04 193.64 34.66 193.14 36.51C192.64 38.36 192.39 40.37 192.39 42.55C192.39 44.73 192.64 46.69 193.14 48.56C193.64 50.43 194.4 52.05 195.4 53.42C196.41 54.79 197.65 55.87 199.14 56.65C200.63 57.43 202.36 57.83 204.33 57.83C206.3 57.83 208.02 57.44 209.49 56.65Z" fill="#F05C2F" stroke="black" stroke-width="1.65"/>
<path d="M248.56 20.88C251.46 20.88 254.07 21.43 256.41 22.54C258.74 23.65 260.74 25.18 262.39 27.13C264.04 29.08 265.31 31.41 266.19 34.1C267.08 36.8 267.52 39.74 267.52 42.92C267.52 46.46 266.95 49.69 265.8 52.61C264.65 55.53 262.93 57.95 260.64 59.89C259.03 61.22 257.18 62.24 255.08 62.97C252.99 63.69 250.57 64.06 247.83 64.06H231.71V20.88H248.56ZM256.01 52.94C257.76 50.56 258.64 47.22 258.64 42.92C258.64 40.79 258.41 38.82 257.95 37.03C257.49 35.24 256.78 33.7 255.84 32.41C254.9 31.12 253.73 30.13 252.34 29.42C250.95 28.71 249.33 28.36 247.48 28.36H240.48V56.5H247.24C251.35 56.5 254.27 55.31 256.03 52.94H256.01Z" fill="#F05C2F" stroke="black" stroke-width="1.65"/>
<path d="M306.03 20.88V28.25H283.03V37.91H303.2V45.1H283.03V56.75H306.22V64.06H274.28V20.88H306.04H306.03Z" fill="#F05C2F" stroke="black" stroke-width="1.65"/>
<path d="M373.76 61.75C371.3 59.7 370.08 56.54 370.08 52.27V47.98H377.93V51.72C377.93 53.89 378.4 55.44 379.35 56.37C380.3 57.3 381.67 57.76 383.49 57.76C385.31 57.76 386.62 57.26 387.45 56.25C388.28 55.24 388.69 53.77 388.69 51.84V20.87H397.44V51.91C397.44 53.76 397.17 55.47 396.62 57.04C396.08 58.61 395.26 59.97 394.17 61.12C393.08 62.27 391.7 63.17 390.03 63.84C388.36 64.5 386.42 64.84 384.2 64.84C379.69 64.84 376.21 63.81 373.75 61.76L373.76 61.75Z" fill="#F05C2F" stroke="black" stroke-width="1.65"/>
<path d="M415.85 63.32C413.27 62.19 411.08 60.63 409.27 58.64C407.46 56.65 406.07 54.27 405.1 51.52C404.13 48.76 403.65 45.77 403.65 42.55C403.65 39.33 404.13 36.34 405.1 33.58C406.07 30.82 407.45 28.44 409.27 26.42C411.09 24.4 413.28 22.84 415.85 21.71C418.43 20.58 421.3 20.02 424.48 20.02C427.66 20.02 430.53 20.58 433.08 21.71C435.64 22.84 437.82 24.41 439.63 26.42C441.44 28.43 442.83 30.82 443.8 33.58C444.77 36.34 445.25 39.33 445.25 42.55C445.25 45.77 444.77 48.76 443.8 51.52C442.83 54.28 441.45 56.65 439.63 58.64C437.82 60.63 435.63 62.19 433.08 63.32C430.52 64.45 427.66 65.01 424.48 65.01C421.3 65.01 418.42 64.45 415.85 63.32ZM429.71 56.65C431.18 55.86 432.41 54.79 433.39 53.42C434.38 52.05 435.11 50.43 435.59 48.56C436.07 46.69 436.31 44.69 436.31 42.55C436.31 40.41 436.07 38.36 435.59 36.51C435.11 34.66 434.37 33.04 433.39 31.65C432.4 30.26 431.18 29.17 429.71 28.39C428.24 27.61 426.52 27.21 424.55 27.21C422.58 27.21 420.85 27.6 419.36 28.39C417.87 29.18 416.62 30.26 415.62 31.65C414.62 33.04 413.86 34.66 413.36 36.51C412.86 38.36 412.61 40.37 412.61 42.55C412.61 44.73 412.86 46.69 413.36 48.56C413.86 50.43 414.62 52.05 415.62 53.42C416.63 54.79 417.87 55.87 419.36 56.65C420.85 57.44 422.58 57.83 424.55 57.83C426.52 57.83 428.24 57.44 429.71 56.65Z" fill="#F05C2F" stroke="black" stroke-width="1.65"/>
<path d="M445.33 20.88H454.87L461.39 33.68C461.71 34.36 462.04 35.06 462.39 35.76C462.73 36.46 463.04 37.12 463.33 37.72C463.65 38.44 463.95 39.15 464.24 39.83H464.36C464.68 39.15 465 38.44 465.33 37.72C465.61 37.12 465.92 36.46 466.27 35.76C466.61 35.05 466.94 34.36 467.27 33.68L473.67 20.88H482.85L468.48 47.39V64.06H459.73V47.39L445.36 20.88H445.33Z" fill="#F05C2F" stroke="black" stroke-width="1.65"/>
<path d="M339.83 33.15L345.87 25.38L345.5 35.22L355.12 33.15L348.52 40.45L357.22 45.05L347.47 46.4L351.18 55.51L342.85 50.28L339.83 59.65L336.8 50.28L328.47 55.51L332.18 46.4L322.43 45.05L331.13 40.45L324.53 33.15L334.15 35.22L333.78 25.38L339.83 33.15Z" fill="#F05C2F"/>
<path d="M339.83 62.33L336.35 51.54L326.75 57.57L331.02 47.07L319.79 45.52L329.81 40.22L322.21 31.81L333.29 34.19L332.87 22.86L339.83 31.81L346.79 22.86L346.37 34.19L357.45 31.81L349.85 40.22L359.87 45.52L348.64 47.07L352.91 57.57L343.31 51.54L339.83 62.33ZM337.26 49.02L339.82 56.96L342.38 49.02L349.45 53.46L346.31 45.73L354.58 44.59L347.2 40.69L352.8 34.5L344.64 36.25L344.95 27.91L339.83 34.5L334.71 27.91L335.02 36.25L326.86 34.5L332.46 40.69L325.08 44.59L333.35 45.73L330.21 53.46L337.28 49.02H337.26Z" fill="black"/>
<path d="M150.75 33.15L156.8 25.38L156.43 35.22L166.05 33.15L159.45 40.45L168.15 45.05L158.4 46.4L162.11 55.51L153.78 50.28L150.75 59.65L147.73 50.28L139.4 55.51L143.11 46.4L133.36 45.05L142.06 40.45L135.46 33.15L145.08 35.22L144.71 25.38L150.75 33.15Z" fill="#F05C2F"/>
<path d="M150.75 62.33L147.27 51.54L137.67 57.57L141.94 47.07L130.71 45.52L140.73 40.22L133.13 31.81L144.21 34.19L143.79 22.86L150.75 31.81L157.71 22.86L157.29 34.19L168.37 31.81L160.77 40.22L170.79 45.52L159.56 47.07L163.83 57.57L154.23 51.54L150.75 62.33ZM148.19 49.02L150.75 56.96L153.31 49.02L160.38 53.46L157.24 45.73L165.5 44.59L158.12 40.69L163.72 34.5L155.56 36.25L155.87 27.91L150.75 34.5L145.63 27.91L145.94 36.25L137.78 34.5L143.38 40.69L136 44.59L144.27 45.73L141.13 53.46L148.2 49.02H148.19Z" fill="black"/>
<path d="M509.15 33.15L515.2 25.38L514.83 35.22L524.45 33.15L517.85 40.45L526.55 45.05L516.8 46.4L520.51 55.51L512.18 50.28L509.15 59.65L506.13 50.28L497.8 55.51L501.51 46.4L491.76 45.05L500.46 40.45L493.86 33.15L503.48 35.22L503.11 25.38L509.15 33.15Z" fill="#F05C2F"/>
<path d="M509.15 62.33L505.67 51.54L496.07 57.57L500.34 47.07L489.11 45.52L499.13 40.22L491.53 31.81L502.61 34.19L502.19 22.86L509.15 31.81L516.11 22.86L515.69 34.19L526.77 31.81L519.17 40.22L529.19 45.52L517.96 47.07L522.23 57.57L512.63 51.54L509.15 62.33ZM506.59 49.02L509.15 56.96L511.71 49.02L518.78 53.46L515.64 45.73L523.91 44.59L516.53 40.69L522.13 34.5L513.97 36.25L514.28 27.91L509.16 34.5L504.04 27.91L504.35 36.25L496.19 34.5L501.79 40.69L494.41 44.59L502.67 45.73L499.53 53.46L506.6 49.02H506.59Z" fill="black"/>
</g>
<defs>
<clipPath id="clip0_811_11">
<rect width="540" height="85.57" fill="white"/>
</clipPath>
</defs>
</svg>
