<svg width="796" height="483" viewBox="0 0 796 483" fill="none" xmlns="http://www.w3.org/2000/svg">
<g clip-path="url(#clip0_823_3)">
<path d="M99.36 300.04C112.48 300.12 116.79 302.35 123.5 307.43C129.7 312.12 135.56 320.15 139.84 326.01L143.17 330.55L143.19 257.58H0L2.05 259.7C7.98 265.82 10.86 273.16 10.86 282.14V455.35C10.84 464.25 7.88 471.81 2.05 477.82L0 479.94H143.17V404.66L140.9 407.85C139.8 409.39 138.56 411.32 137.25 413.35C133.34 419.4 128.48 426.92 123.5 430.69C116.75 435.79 112.41 438.03 99.12 438.08H61.79V388.7C68.73 388.7 102.21 388.7 103.2 388.7C112 388.73 119.52 391.7 125.54 397.53L127.66 399.58V335.66L125.54 337.71C119.5 343.55 111.94 346.52 103.07 346.52H61.78V300.03H99.35L99.36 300.04Z" fill="black"/>
<path d="M326.84 455.35V440.06C326.84 427.82 322.97 415.48 315.93 405.32C310.04 396.81 302.63 390.88 295.19 388.64C299.92 385.84 304.51 382.88 308.75 379.13C317.21 371.98 331.41 356.01 331.41 329.49C331.41 297.79 316.94 274.6 290.66 264.18C279.5 259.81 265.51 257.59 249.09 257.59H171.94L173.99 259.71C180 265.92 182.8 272.9 182.8 281.68V455.29C182.8 464.21 179.84 471.8 173.99 477.83L171.94 479.95H244.58L242.53 477.83C236.69 471.79 233.72 464.23 233.72 455.35V402.25H237.72C258.96 402.33 273.63 421.43 274.21 449.77V455.38C274.22 463.3 275.18 472.36 282.17 479.57L282.54 479.95H337.71L335.66 477.83C329.81 471.79 326.85 464.23 326.85 455.35H326.84ZM280.44 329.78C280.44 342.94 273.55 350.41 267.77 354.37H267.76C263.16 357.61 255.64 359.78 249.05 359.78C244.88 359.78 237.72 359.75 233.71 359.55V300.28C234.65 300.27 235.98 300.25 237.53 300.22C242.19 300.15 248.56 300.05 252.18 300.05C268.82 300.05 280.45 312.28 280.45 329.79L280.44 329.78Z" fill="black"/>
<path d="M572.44 259.66C579.45 267.71 573.52 277.49 569.38 282.58L512.63 348.18L512.66 282.46C512.66 273.41 515.62 265.75 521.47 259.72L523.52 257.6H451.33L453.38 259.72C458.83 265.35 461.75 272.53 462.06 281L462.01 455.37C462.01 464.25 459.05 471.81 453.2 477.85L451.15 479.97H523.51L521.46 477.85C517.73 474 515.15 469.31 513.8 463.89C513.79 463.85 512.66 459.49 512.66 453.63V442.86L512.63 438.28V381.17C523.04 394.36 566.39 449.35 570.34 454.91C574.66 460.99 579.06 472.11 573.52 477.84L571.47 479.96H653.83L652.22 477.93C629.73 449.58 566.86 371.55 559.64 362.6C567.4 354.09 635.09 279.98 656.31 259.75L658.57 257.6H570.63L572.43 259.67L572.44 259.66Z" fill="black"/>
<path d="M425.81 259.7L427.86 257.58H355.21L357.26 259.7C363.07 265.7 366.03 273.29 366.07 282.27V456.2C365.87 464.78 362.93 472.05 357.34 477.82L355.29 479.94H427.86L425.81 477.82C419.97 471.78 417 464.22 417 455.34V282.44C417 273.39 419.96 265.73 425.81 259.7Z" fill="black"/>
<path d="M322.1 226.02C370.75 226.02 402.19 199.23 402.19 157.77C402.19 135.43 390.83 116.32 368.41 100.98C364.27 98.16 360.54 95.66 357.14 93.37C350.28 88.76 344.86 85.12 339.99 81.54C331.6 75.48 327.86 69.81 327.86 63.16C327.86 53.15 335.49 46.56 347.72 45.97H348.2C359.71 45.84 365.13 48.34 371.66 53.28C377.88 57.98 383.76 66.04 388.06 71.92L391.34 76.4V72.6C391.34 72.15 391.45 27.37 391.45 7.44001V6.56001L390.62 6.26001C382.15 3.24001 363.21 0.0100098 348.51 0.0100098C303.02 0.0100098 271.26 27.6 271.26 67.1C271.26 91.87 282.71 109.85 309.55 127.25C312.18 128.96 314.79 130.63 317.26 132.22C322.98 135.89 327.91 139.06 330.66 141.03C339.11 147.07 344.74 152.89 344.74 161.69C344.74 173.79 335.23 180.73 318.6 180.73C305.23 180.64 297.41 179.55 289.14 173.64C282.16 168.66 275.41 161.3 270.62 153.46L268.31 149.69V154.11C268.3 154.57 268.19 200.73 268.19 215.2V215.99L268.9 216.33C279.06 221.16 299.45 226.03 322.1 226.03V226.02Z" fill="black"/>
<path d="M452.19 101.32C451.17 105.04 448.73 108.94 444.94 112.92L442.93 115.03H498.26L496.25 112.92C492.46 108.95 490.03 105.05 489 101.32C487.99 97.65 487.46 94.16 487.44 90.96V33.03H498.35C507.53 33.03 510.5 34.54 515.08 38C519.29 41.18 523.29 46.66 526.21 50.66L529.17 54.7V1.10001H412.04V54.7L414.99 50.67C417.91 46.66 421.92 41.18 426.13 38C430.71 34.54 433.68 33.02 442.86 33.02H453.77V90.95C453.74 94.16 453.22 97.65 452.21 101.32H452.19Z" fill="black"/>
<path d="M761.87 357.46C757.72 354.64 753.99 352.13 750.58 349.84C743.73 345.24 738.32 341.6 733.45 338.02C725.06 331.96 721.32 326.29 721.32 319.64C721.32 309.63 728.95 303.04 741.18 302.45H741.66C753.15 302.31 758.59 304.82 765.12 309.76C771.34 314.46 777.22 322.51 781.51 328.39L784.8 332.88V329.08C784.8 328.63 784.9 283.85 784.9 263.92V263.04L784.07 262.74C775.6 259.72 756.66 256.49 741.96 256.49C696.47 256.49 664.71 284.08 664.71 323.58C664.71 348.35 676.16 366.34 703 383.73C705.63 385.44 708.24 387.11 710.7 388.69C716.42 392.36 721.36 395.54 724.11 397.51C732.56 403.55 738.19 409.37 738.19 418.17C738.19 430.27 728.68 437.21 712.05 437.21C698.68 437.12 690.86 436.03 682.59 430.12C675.61 425.14 668.86 417.78 664.06 409.94L661.75 406.17V410.59C661.74 411.05 661.63 457.21 661.63 471.68V472.47L662.34 472.81C672.5 477.64 692.89 482.51 715.54 482.51C764.19 482.51 795.63 455.72 795.63 414.26C795.63 391.92 784.27 372.81 761.85 357.47L761.87 357.46Z" fill="black"/>
<path d="M470.59 223.46C484.44 223.46 495.7 212.19 495.7 198.33C495.7 184.47 484.43 173.2 470.59 173.2C456.75 173.2 445.48 184.47 445.48 198.33C445.48 212.19 456.74 223.46 470.59 223.46Z" fill="black"/>
<path d="M150.25 98.87L135.75 52.99L121.25 98.87H73.91L112.32 127.16L98.1 172.16L135.75 144.43L173.4 172.16L159.19 127.16L197.6 98.87H150.25Z" fill="black"/>
<path d="M723.44 98.87H676.1L661.6 52.99L647.1 98.87H599.75L638.16 127.16L623.95 172.16L661.6 144.43L699.25 172.16L685.03 127.16L723.44 98.87Z" fill="black"/>
</g>
<defs>
<clipPath id="clip0_823_3">
<rect width="795.65" height="482.5" fill="white"/>
</clipPath>
</defs>
</svg>
