<svg width="2828" height="288" viewBox="0 0 2828 288" fill="none" xmlns="http://www.w3.org/2000/svg">
<path d="M71.2401 67.294V147.1L142.762 67.294H235.267L151.505 148.002L244.912 280.504H153.31L97.0738 199.909L70.8452 225.271V280.448H0V67.2376H71.1837L71.2401 67.294Z" fill="#231F20"/>
<path d="M264.26 67.294H340.463V188.412C340.463 201.769 341.648 211.407 346.555 219.466C356.2 236.092 375.547 240.658 390.946 240.658C410.914 240.658 422.195 233.838 427.497 228.878C440.583 216.817 440.752 197.542 440.752 187.228V67.2376H516.956V179C516.956 204.136 516.335 230.4 504.603 248.492C481.364 284.731 425.071 288 391.228 288C343.791 288 316.886 281.35 300.867 271.712C267.644 255.368 264.26 221.552 264.26 204.305V67.1812V67.294Z" fill="#231F20"/>
<path d="M642.458 67.294V228.653H751.377V280.561H565.69V67.3502H642.402L642.458 67.294Z" fill="#231F20"/>
<path d="M956.185 67.0121V115.087H880.658V280.561H803.496V115.087H727.63V67.0121H956.185Z" fill="#231F20"/>
<path d="M988.9 67.294H1065.1V188.412C1065.1 201.769 1066.29 211.407 1071.08 219.466C1080.78 236.092 1100.08 240.658 1115.59 240.658C1135.5 240.658 1146.95 233.838 1152.14 228.878C1165.11 216.817 1165.39 197.542 1165.39 187.228V67.2376H1241.65V179C1241.65 204.136 1240.98 230.4 1229.19 248.492C1205.95 284.731 1149.66 288 1115.81 288C1068.38 288 1041.47 281.35 1025.45 271.712C992.115 255.368 988.9 221.552 988.9 204.305V67.1812V67.294Z" fill="#231F20"/>
<path d="M1289.99 67.294H1446.86C1465.53 67.6885 1488.6 67.9138 1506.36 80.933C1521.82 92.7123 1531.46 113.566 1531.46 134.982C1531.46 150.143 1526.61 164.966 1517.81 175.505C1505.74 189.877 1491.25 192.977 1482.28 195.457L1535.69 280.561H1451.09L1407.26 203.065H1366.53V280.561H1289.99V67.294ZM1366.53 154.596H1423.79C1435.69 154.596 1455.04 154.37 1455.04 135.264C1455.04 130.361 1453.51 125.288 1449.62 121.681C1443.53 116.271 1435.69 115.651 1429.93 115.651H1366.53V154.596Z" fill="#231F20"/>
<path d="M1580.48 67.294H1725.56C1744.34 67.6885 1766.96 67.9138 1785.51 84.5964C1792.45 90.5706 1804.47 104.548 1804.47 130.135C1804.47 181.198 1761.32 188.186 1747.1 190.554L1825.62 280.504H1785.97L1713.88 195.4H1610.77V280.504H1580.48V67.294ZM1610.38 93.0504V170.376H1715.85C1732.44 170.376 1753.59 170.095 1765.66 154.032C1771.19 147.156 1772.88 138.928 1772.88 131.432C1772.88 123.147 1770.91 115.087 1766.56 108.775C1756.92 93.3323 1741.46 93.3323 1727.64 93.1068H1610.38V93.0504Z" fill="#231F20"/>
<path d="M1948.07 67.0121H1980.06L2089.48 280.504H2054.79L2028.73 227.977H1897.59L1871.53 280.504H1837.75L1948.19 67.0121H1948.07ZM1970.81 113.566C1969.17 109.959 1967.42 106.239 1965.96 102.688C1965 99.9265 1964.15 97.2211 1963.59 94.4594C1962.63 97.2211 1961.61 100.152 1960.48 103.139C1959.02 107.14 1957.16 110.691 1955.35 114.693L1910.28 203.235H2015.71L1970.81 113.509V113.566ZM1997.66 28.6873C1997.66 44.4117 1984.63 57.3745 1963.14 57.3745C1937.47 57.3745 1927.49 41.6501 1927.49 28.011C1927.49 10.2012 1943.45 0.281801 1962.85 0C1984.06 0 1997.66 12.2865 1997.66 28.6873ZM1945.65 28.6873C1945.65 36.7468 1953.26 42.8335 1962.85 42.8335C1973.18 42.8335 1979.49 36.2395 1979.49 28.6873C1979.49 21.135 1973.18 13.8645 1962.29 14.1463C1950.78 14.4281 1945.65 21.9241 1945.65 28.6873Z" fill="#231F20"/>
<path d="M2125.53 67.294H2231.74C2256.11 67.294 2284.87 67.6883 2313.24 90.9087C2330.45 105.055 2348.67 131.375 2348.67 172.462C2348.67 213.548 2331.18 237.332 2318.72 249.957C2288.76 279.602 2247.08 280.504 2211.15 280.504H2125.53V67.294ZM2156.1 92.3741V254.86H2218.37C2245.22 254.86 2278.44 253.959 2301.17 225.046C2313.24 209.321 2317.81 189.652 2317.81 171.504C2317.81 142.816 2306.64 123.429 2295.36 112.551C2275.23 92.656 2251.31 92.6559 2231.91 92.3741H2156.1Z" fill="#231F20"/>
<path d="M2388.04 67.294H2585.23V93.6141H2418.27V157.357H2580.55V182.381H2418.27V254.24H2592.62V280.504H2388.04V67.294Z" fill="#231F20"/>
<path d="M2623.36 67.294H2828V92.656H2740.63V280.504H2710.34V92.656H2623.36V67.294Z" fill="#231F20"/>
<path d="M71.2401 67.294V147.1L142.762 67.294H235.267L151.505 148.002L244.912 280.504H153.31L97.0738 199.909L70.8452 225.271V280.448H0V67.2376H71.1837L71.2401 67.294Z" fill="#231F20"/>
<path d="M264.26 67.294H340.463V188.412C340.463 201.769 341.648 211.407 346.555 219.466C356.2 236.092 375.547 240.658 390.946 240.658C410.914 240.658 422.195 233.838 427.497 228.878C440.583 216.817 440.752 197.542 440.752 187.228V67.2376H516.956V179C516.956 204.136 516.335 230.4 504.603 248.492C481.364 284.731 425.071 288 391.228 288C343.791 288 316.886 281.35 300.867 271.712C267.644 255.368 264.26 221.552 264.26 204.305V67.1812V67.294Z" fill="#231F20"/>
<path d="M642.458 67.294V228.653H751.377V280.561H565.69V67.3502H642.402L642.458 67.294Z" fill="#231F20"/>
<path d="M956.185 67.0121V115.087H880.658V280.561H803.496V115.087H727.63V67.0121H956.185Z" fill="#231F20"/>
<path d="M988.9 67.294H1065.1V188.412C1065.1 201.769 1066.29 211.407 1071.08 219.466C1080.78 236.092 1100.08 240.658 1115.59 240.658C1135.5 240.658 1146.95 233.838 1152.14 228.878C1165.11 216.817 1165.39 197.542 1165.39 187.228V67.2376H1241.65V179C1241.65 204.136 1240.98 230.4 1229.19 248.492C1205.95 284.731 1149.66 288 1115.81 288C1068.38 288 1041.47 281.35 1025.45 271.712C992.115 255.368 988.9 221.552 988.9 204.305V67.1812V67.294Z" fill="#231F20"/>
<path d="M1289.99 67.294H1446.86C1465.53 67.6885 1488.6 67.9138 1506.36 80.933C1521.82 92.7123 1531.46 113.566 1531.46 134.982C1531.46 150.143 1526.61 164.966 1517.81 175.505C1505.74 189.877 1491.25 192.977 1482.28 195.457L1535.69 280.561H1451.09L1407.26 203.065H1366.53V280.561H1289.99V67.294ZM1366.53 154.596H1423.79C1435.69 154.596 1455.04 154.37 1455.04 135.264C1455.04 130.361 1453.51 125.288 1449.62 121.681C1443.53 116.271 1435.69 115.651 1429.93 115.651H1366.53V154.596Z" fill="#231F20"/>
<path d="M1580.48 67.294H1725.56C1744.34 67.6885 1766.96 67.9138 1785.51 84.5964C1792.45 90.5706 1804.47 104.548 1804.47 130.135C1804.47 181.198 1761.32 188.186 1747.1 190.554L1825.62 280.504H1785.97L1713.88 195.4H1610.77V280.504H1580.48V67.294ZM1610.38 93.0504V170.376H1715.85C1732.44 170.376 1753.59 170.095 1765.66 154.032C1771.19 147.156 1772.88 138.928 1772.88 131.432C1772.88 123.147 1770.91 115.087 1766.56 108.775C1756.92 93.3323 1741.46 93.3323 1727.64 93.1068H1610.38V93.0504Z" fill="#231F20"/>
<path d="M1948.07 67.0121H1980.06L2089.48 280.504H2054.79L2028.73 227.977H1897.59L1871.53 280.504H1837.75L1948.19 67.0121H1948.07ZM1970.81 113.566C1969.17 109.959 1967.42 106.239 1965.96 102.688C1965 99.9265 1964.15 97.2211 1963.59 94.4594C1962.63 97.2211 1961.61 100.152 1960.48 103.139C1959.02 107.14 1957.16 110.691 1955.35 114.693L1910.28 203.235H2015.71L1970.81 113.509V113.566ZM1997.66 28.6873C1997.66 44.4117 1984.63 57.3745 1963.14 57.3745C1937.47 57.3745 1927.49 41.6501 1927.49 28.011C1927.49 10.2012 1943.45 0.281801 1962.85 0C1984.06 0 1997.66 12.2865 1997.66 28.6873ZM1945.65 28.6873C1945.65 36.7468 1953.26 42.8335 1962.85 42.8335C1973.18 42.8335 1979.49 36.2395 1979.49 28.6873C1979.49 21.135 1973.18 13.8645 1962.29 14.1463C1950.78 14.4281 1945.65 21.9241 1945.65 28.6873Z" fill="#231F20"/>
<path d="M2125.53 67.294H2231.74C2256.11 67.294 2284.87 67.6883 2313.24 90.9087C2330.45 105.055 2348.67 131.375 2348.67 172.462C2348.67 213.548 2331.18 237.332 2318.72 249.957C2288.76 279.602 2247.08 280.504 2211.15 280.504H2125.53V67.294ZM2156.1 92.3741V254.86H2218.37C2245.22 254.86 2278.44 253.959 2301.17 225.046C2313.24 209.321 2317.81 189.652 2317.81 171.504C2317.81 142.816 2306.64 123.429 2295.36 112.551C2275.23 92.656 2251.31 92.6559 2231.91 92.3741H2156.1Z" fill="#231F20"/>
<path d="M2388.04 67.294H2585.23V93.6141H2418.27V157.357H2580.55V182.381H2418.27V254.24H2592.62V280.504H2388.04V67.294Z" fill="#231F20"/>
<path d="M2623.36 67.294H2828V92.656H2740.63V280.504H2710.34V92.656H2623.36V67.294Z" fill="#231F20"/>
</svg>
