<svg width="453" height="725" viewBox="0 0 453 725" fill="none" xmlns="http://www.w3.org/2000/svg">
<g clip-path="url(#clip0_825_6)">
<path d="M451.221 137.943C452.602 130.434 453.729 123.29 452.42 115.673C451.33 109.221 448.785 103.098 445.478 97.4479C439.335 86.9504 429.994 78.4941 421.779 69.6005C412.365 59.3947 400.079 50.4645 387.721 44.0494C384.413 42.3363 380.96 40.9513 377.507 39.5662C376.635 39.2018 375.763 38.9466 374.89 38.7279C374.272 37.6708 374.926 39.0924 374.163 37.0512C372.891 33.5521 371.728 30.0894 370.238 26.6631C364.713 14.0152 352.645 6.50661 339.669 2.60653C326.766 -1.2571 312.699 -0.564543 299.832 2.97105C286.056 6.76178 274.061 14.9264 260.54 19.3368C247.128 23.7107 233.897 19.7742 220.921 15.8742C206.963 11.6825 192.751 8.69361 178.357 12.7759C171.742 14.6349 166.29 18.4985 160.874 22.4715C154.913 26.8454 148.589 30.5268 141.973 33.8437C129.906 39.8578 117.111 44.8513 104.28 49.043C91.3769 53.2711 77.7464 57.39 66.8057 65.6275C55.7196 73.938 46.9598 84.4718 39.7629 96.172C32.8205 107.435 27.7683 119.755 22.8977 132.002C17.4819 145.743 11.3753 159.193 6.68646 173.19C2.65185 185.218 -2.61856 200.855 1.48874 213.43C4.65101 223.016 14.2468 230.488 17.0819 239.09C18.8629 244.521 17.0092 250.863 16.9002 256.404C16.7185 263.803 19.2991 271.603 25.9508 275.685C30.3852 278.419 37.146 280.096 42.3801 280.169C42.7436 280.169 43.0707 280.169 43.3252 280.169C45.397 281.554 47.5415 282.756 49.8677 283.886C50.1585 285.782 49.8314 288.479 49.8677 290.447C49.9404 293.473 50.3038 296.644 51.3943 299.487C43.5068 307.724 44.9609 320.263 43.8341 330.76C42.3075 345.048 46.3057 357.514 58.0824 366.408C63.5346 370.526 71.4584 372.057 78.1101 370.927C84.58 369.834 89.8505 365.606 94.503 361.341C94.9755 360.904 95.4117 360.466 95.8478 360.029C95.3753 365.715 95.0117 371.401 95.0481 377.124C95.1571 392.797 97.6652 408.361 99.4826 423.888C101.227 438.978 102.936 454.032 104.789 469.085C106.461 482.426 106.752 496.131 99.9552 508.196C95.2663 516.506 87.4151 522.229 78.5462 525.4C74.4026 526.894 69.9681 528.097 65.6064 528.935C61.281 529.774 57.7189 529.993 51.7215 530.794C42.0166 532.07 31.7664 534.148 24.5695 541.255C14.1014 551.534 20.2079 565.203 23.77 577.012C28.0227 591.118 27.5866 606.135 31.9846 620.241C35.4377 631.285 41.6894 641.2 50.0858 649.255C58.5912 657.383 69.641 664.454 80.6181 668.828C93.8851 674.113 108.242 675.097 122.164 677.831C128.706 679.107 135.249 680.601 141.682 682.387C149.025 684.428 156.367 685.012 163.927 685.959C179.157 687.855 194.314 690.552 209.58 692.156C241.057 695.509 273.225 692.046 303.939 684.866C313.571 682.606 323.058 679.654 332.109 675.644C341.777 671.343 349.992 664.308 357.334 656.909C364.64 649.51 371.728 641.673 378.634 633.91C385.795 625.854 390.92 616.414 395.645 606.864C405.604 586.781 416.69 567.426 427.195 547.634C431.629 539.287 435.555 530.831 438.608 521.901C439.698 518.73 441.08 514.429 442.097 512.023C443.769 508.086 444.824 506.045 447.295 503.895C457.836 494.6 442.316 479.437 431.847 488.659C423.306 496.204 420.216 508.378 416.654 518.693C412.874 529.628 405.859 541.51 399.498 552.7C392.228 565.458 385.395 578.434 378.925 591.592C372.964 603.73 367.003 614.847 357.48 624.615C348.138 634.165 340.214 645.391 328.874 652.827C318.769 659.424 306.193 662.267 294.561 664.892C264.829 671.671 233.424 674.04 203.11 669.812C187.88 667.662 172.251 664.09 156.839 663.652C151.096 663.506 145.099 660.809 139.501 659.461C132.45 657.784 125.253 656.435 118.093 655.305C104.644 653.191 91.9585 651.187 80.0728 644.334C71.531 639.413 63.7525 633.545 58.6638 626C51.8304 615.831 50.2311 603.584 48.6682 591.41C47.7231 584.156 46.5965 576.866 44.4883 569.832C43.616 566.879 42.5254 564 41.5803 561.047C41.1441 559.662 40.817 558.241 40.4899 556.856C40.4536 556.637 40.4535 556.382 40.4535 556.2C40.4535 556.163 40.4899 556.163 40.4899 556.127C40.708 555.944 40.9624 555.762 41.1442 555.616C41.653 555.325 42.1621 555.033 42.7073 554.778C41.6169 555.325 44.1247 554.268 44.3428 554.195C46.4146 553.502 48.5955 553.065 50.74 552.628C51.8668 552.409 52.9936 552.227 54.1204 552.081C54.6656 552.008 55.2472 551.935 55.7924 551.826C55.7924 551.826 56.1559 551.789 56.9192 551.68C66.8058 550.477 76.2564 549.092 85.6341 545.702C100.9 540.235 113.622 529.847 120.782 515.376C130.56 495.73 127.616 474.371 124.526 453.522C123.145 444.264 122.563 434.932 121.582 425.638C120.455 415.104 118.929 404.643 117.911 394.073C116.893 383.284 116.711 372.568 117.511 361.742C118.129 353.104 119.219 344.465 119.619 335.827C120.891 333.713 121.618 331.343 122.091 328.901C129.07 329.521 134.994 322.413 133.541 315.16C132.705 311.005 129.833 307.907 126.198 305.72C125.907 305.209 125.617 304.699 125.362 304.262C123.836 301.419 121.001 298.904 119.038 296.316C114.603 290.411 110.678 284.178 106.97 277.836C99.9915 265.88 91.9585 254.909 87.7421 241.569C86.1065 236.429 84.5435 230.051 84.5799 225.75C84.5799 225.495 84.5799 225.312 84.5799 225.166C84.6526 225.093 84.7617 224.802 84.9435 224.182C84.471 225.859 85.6341 223.453 85.1252 223.891C86.2156 222.761 88.2148 221.74 90.3957 221.121C90.432 221.121 90.4682 221.121 90.5046 221.084C90.4682 221.084 90.432 221.121 90.3957 221.121C90.5411 221.157 90.6864 221.157 90.7591 221.194C90.7954 221.23 90.8681 221.266 90.9408 221.303C90.8681 221.266 90.6501 221.193 90.3593 221.121C89.4506 221.412 91.3406 221.521 90.9771 221.303C91.0862 221.376 91.1953 221.412 91.3044 221.485C93.2672 222.433 95.0844 223.563 97.0835 224.401C103.772 227.317 111.114 228.666 118.383 227.791C123 227.244 127.943 225.531 132.595 224.765C130.524 231.691 126.961 238.215 124.962 245.104C122.963 251.993 126.126 261.506 134.158 263.037C136.012 263.402 137.757 263.438 139.393 263.256C139.356 263.402 139.284 263.548 139.247 263.693C137.175 270.837 142.845 276.779 149.788 277.325C164.472 278.492 174.359 260.486 180.066 249.733C181.374 247.291 182.574 244.776 183.701 242.261C184.355 240.803 184.973 239.345 185.591 237.887C185.445 239.126 185.7 239.054 186.354 237.596C187.299 236.174 187.808 234.497 188.462 232.93C192.933 222.396 182.065 213.94 174.105 209.493C172.832 208.764 171.706 208.217 170.688 207.561C172.796 207.634 174.904 207.452 177.122 206.832C181.083 205.703 185.3 204.973 189.262 205.046C197.84 205.156 203.728 200.636 206.127 193.711C210.998 196.298 215.832 198.996 221.175 200.271C234.806 203.588 244.438 194.184 251.089 183.906C254.106 179.24 257.196 173.007 259.304 166.41C260.031 166.592 260.758 166.738 261.449 166.847C267.228 167.686 272.68 167.066 278.423 166.009C283.221 165.134 285.256 164.478 289.146 164.004C301.904 162.364 314.444 158.136 323.276 149.935C331.782 156.569 343.813 160.359 353.336 162.145C364.895 164.332 376.126 164.551 385.54 156.678C388.375 154.309 390.411 151.101 391.756 147.566C391.901 147.566 392.083 147.602 392.228 147.602C392.083 148.842 392.01 150.044 391.937 151.247C391.319 159.12 393.646 165.426 396.481 172.606C400.697 183.177 401.897 194.804 408.694 204.244C416.872 215.544 432.065 217.585 441.625 206.431C449.731 196.991 454.274 181.755 447.368 171.039C446.75 170.091 446.023 169.253 445.332 168.342C444.86 167.686 444.206 165.608 444.206 166.556C444.024 164.041 444.533 161.854 445.332 159.412C447.768 152.304 449.876 145.415 451.221 137.943ZM40.5263 177.6C34.1654 187.842 28.7497 199.834 25.4057 212.19C25.3693 212.154 25.3329 212.118 25.3329 212.081C24.6423 211.133 24.0243 210.149 23.4428 209.165C23.4428 209.165 22.7158 207.598 22.4977 207.233C22.2796 206.359 21.8072 204.573 21.989 206.067C21.6982 203.661 21.88 203.807 22.2434 201.11C24.0608 187.113 29.4766 173.481 34.7107 160.432C35.9102 157.443 37.1097 154.382 38.3091 151.32C38.927 152.632 39.6176 153.908 40.2718 155.184C42.5618 159.302 45.2516 163.494 48.3412 167.358C45.5787 170.784 42.7072 174.137 40.5263 177.6ZM87.7421 332.947C88.2873 333.166 88.869 333.385 89.4142 333.567C89.3415 334.551 89.2325 335.389 88.9781 336.009C87.9603 338.342 82.5082 342.132 80.4 344.939C79.673 345.923 77.8919 347.09 76.8742 347.964C75.8201 348.912 75.5293 349.167 75.9655 348.657C75.9291 348.657 74.0754 349.568 73.93 349.75C73.8573 349.75 73.821 349.787 73.7847 349.787C72.7306 349.787 72.6214 349.75 73.4211 349.787C71.8218 349.459 70.1498 348.584 68.9503 347.527C64.007 343.262 65.2066 335.499 65.8609 329.266C66.1516 326.496 66.1152 323.653 66.2243 320.846C70.1498 323.689 74.9114 325.985 79.1277 326.022C79.2367 326.022 79.3095 326.022 79.3822 326.022C80.0364 326.459 80.3273 326.605 80.4 326.605C82.4718 329.229 84.5435 331.562 87.7421 332.947ZM73.3485 295.987C74.9842 297.336 76.5471 298.794 78.0373 300.471C79.055 301.637 79.8547 302.876 80.5089 304.152C78.6552 303.168 77.0197 301.783 75.8565 300.252C74.8024 298.831 74.0028 297.445 73.3485 295.987ZM113.586 206.614C108.642 206.723 106.28 204.973 102.354 202.896C96.6111 199.871 91.0499 199.142 84.6526 200.344C71.9309 202.714 63.4983 213.575 62.6986 225.786C62.3351 231.253 64.1525 237.158 65.3519 242.48C66.8786 249.405 69.6774 256.003 72.6579 262.418C74.3299 266.026 76.1835 269.525 78.1826 272.988C75.9654 271.749 73.6755 270.619 71.422 269.671C69.1321 268.723 66.8785 267.849 64.6613 266.974C64.5886 266.901 64.5523 266.828 64.4796 266.792C61.281 263.365 56.701 261.069 52.0485 259.866C49.6132 257.388 47.7231 254.289 46.1602 251.155C41.2532 241.277 44.1975 229.03 46.7055 219.006C49.9404 206.067 55.5379 193.383 63.6435 182.667C63.9706 182.229 64.2978 181.792 64.6249 181.354C77.5648 187.952 91.8494 184.052 103.844 176.907C104.898 176.288 105.953 175.595 106.97 174.903C108.57 176.251 110.387 177.345 112.313 178.147C115.585 179.495 118.929 180.297 122.309 180.735C121.618 184.671 121.073 188.753 122.418 192.982C123.618 196.772 126.162 200.527 129.397 203.661C123.836 204.755 118.384 206.504 113.586 206.614ZM164.473 232.165C165.854 228.811 164.473 232.165 164.145 232.821C163.746 233.696 163.309 234.57 162.909 235.409C160.074 233.295 156.512 232.42 152.768 232.857C153.023 232.201 153.241 231.545 153.495 230.889C154.404 228.228 154.986 225.604 155.204 223.052C158.475 225.604 162.401 227.28 165.817 229.54C165.309 230.379 164.872 231.217 164.473 232.165ZM428.54 181.937C428.612 182.047 428.721 182.156 428.794 182.265C428.721 183.177 428.576 184.781 428.54 185.4C428.612 183.177 428.103 186.749 428.067 186.931C428.14 186.676 427.013 189.555 427.195 189.227C426.868 189.883 426.504 190.467 426.141 191.086C425.741 190.394 425.341 189.665 424.941 188.936C424.069 187.259 423.306 185.546 422.506 183.833C423.342 185.582 422.288 180.479 422.36 180.771C421.997 179.167 421.524 177.564 421.016 175.996C420.071 172.898 418.835 169.873 417.635 166.847C416.472 163.895 415.309 160.979 414.255 157.99C413.31 155.329 413.746 152.45 413.964 149.716C414.109 147.711 415.309 145.707 416.109 143.884C418.181 139.219 418.689 135.027 417.562 130.034C416.545 125.623 411.674 121.832 407.022 122.124C402.297 122.416 398.08 124.457 394.264 125.805C393.718 125.332 392.846 124.566 392.701 124.42C391.283 123.035 390.665 122.051 389.575 120.484C381.76 109.112 363.55 119.208 370.71 131.346C371.255 132.257 371.292 132.257 371.401 133.022C371.655 134.881 371.546 136.813 371.473 138.709C371.364 140.713 370.855 140.932 369.62 141.661C371.401 140.604 366.712 142.171 368.529 141.989C366.785 142.171 365.004 142.062 363.259 141.916C362.641 141.88 361.987 141.77 361.369 141.697C361.26 141.697 361.114 141.661 360.933 141.624C359.406 141.369 357.879 141.078 356.353 140.75C350.028 139.401 344.867 137.651 340.251 135.136C339.088 134.517 337.961 133.751 336.87 133.022C337.561 133.46 336.325 132.366 335.562 131.674C335.962 131.929 334.944 130.398 334.689 130.362C334.653 129.997 334.508 129.049 334.544 128.649C335.198 116.402 316.079 114.105 313.062 125.769C311.681 131.054 309.355 134.262 305.211 136.922C300.159 140.166 294.125 141.552 287.546 142.572C282.748 143.338 274.243 145.306 268.5 145.707C266.719 145.816 265.992 145.816 264.683 145.525C264.574 145.488 264.466 145.488 264.393 145.452C263.193 141.77 262.612 138.016 260.976 134.335C258.432 128.612 252.362 127.847 247.491 130.07C243.202 128.576 238.804 128.685 235.315 132.148C231.971 135.428 230.916 141.187 233.606 145.196C235.351 147.821 237.532 149.862 239.967 151.356C240.003 151.903 240.003 152.413 240.003 152.96C240.003 153.288 239.967 153.653 239.931 154.017C239.931 153.726 239.676 155.767 239.604 155.986C239.24 157.735 238.695 159.412 238.15 161.088C237.931 161.781 237.677 162.473 237.386 163.129C237.277 163.421 237.205 163.604 237.132 163.786C237.059 163.968 236.914 164.223 236.732 164.588C235.278 167.759 233.533 170.82 231.607 173.773C231.353 174.174 229.753 176.324 229.608 176.579C228.99 177.308 228.336 178.001 227.681 178.693C226.409 179.969 223.029 178.11 220.593 176.834C210.416 171.476 200.021 166.884 189.116 163.202C188.753 163.057 188.353 162.947 187.99 162.802C181.919 160.87 177.449 164.004 175.559 168.451C171.96 168.232 168.253 169.581 165.745 173.335C162.764 177.709 160.111 181.609 156.658 185.4C156.549 185.51 156.44 185.619 156.33 185.765C153.277 186.639 150.515 188.243 148.443 190.576C148.116 190.503 147.862 190.539 148.298 190.758C147.098 190.175 146.989 189.993 145.935 189.045C145.608 188.754 143.609 186.967 143.391 186.712C143.245 186.53 143.136 186.384 143.027 186.275C143.064 186.166 143.1 185.983 143.1 185.655C143.1 187.733 143.391 184.38 143.427 184.161C143.681 183.031 143.972 181.901 144.263 180.735C145.026 177.381 145.463 173.882 145.136 170.456C144.554 164.624 140.628 159.667 134.195 159.667C132.196 159.667 130.196 159.667 128.197 159.594C127.579 159.594 124.272 159.229 124.09 159.266C123.726 159.193 123.399 159.12 123.036 159.047C125.907 155.293 128.452 151.356 130.778 147.311C137.539 135.392 141.392 119.427 131.65 107.982C128.888 104.774 124.672 102.696 120.383 102.769C114.712 102.879 110.968 106.232 107.733 110.387C103.335 116.001 101.663 124.53 100.282 131.346C98.8283 138.453 97.5925 145.889 97.6652 153.142C97.6652 153.653 97.6651 154.163 97.7014 154.637C94.212 157.589 90.2866 159.959 86.0703 161.453C82.5809 162.692 79.7092 164.041 76.1108 162.765C78.2916 157.334 79.2367 151.611 77.7465 145.379C76.2199 138.891 71.1312 133.97 65.7153 130.398C61.3172 127.519 55.2109 123.728 49.6496 123.546C54.9928 112.1 61.2808 101.166 69.7499 91.871C78.3643 82.3942 88.7236 76.9997 100.791 72.8081C106.97 70.6575 113.186 68.7621 119.365 66.6116C126.089 64.2789 132.377 60.9984 138.956 58.4105C146.008 55.6039 152.95 52.6515 159.493 48.8608C165.563 45.3617 171.088 41.4252 176.831 37.4157C187.59 29.9072 199.839 31.9119 211.761 35.5568C225.682 39.8214 240.003 44.1224 254.761 42.3728C270.063 40.5503 283.185 32.6408 297.07 26.6267C307.938 21.9247 319.278 20.0658 330.946 22.5808C335.598 23.565 340.65 25.3146 344.431 28.1941C349.083 31.7296 350.755 36.1035 352.609 41.4251C354.245 46.1271 356.207 51.8861 360.242 55.2029C364.567 58.775 370.165 59.4676 375.145 61.8368C386.958 67.4135 397.062 75.7603 406.258 84.7633C413.855 92.199 421.852 100.254 427.231 109.44C429.666 113.558 431.048 118.151 431.302 122.926C431.666 129.633 429.121 137.579 427.522 144.103C425.85 150.919 422.942 156.751 422.324 163.859C421.815 171.075 424.505 176.397 428.54 181.937Z" fill="black"/>
<path d="M250.29 322.012C245.674 309.401 229.063 309.437 217.94 309.948C209.507 310.312 200.384 311.005 191.988 313.046C189.189 311.406 185.3 311.406 182.61 313.01C178.067 315.67 177.34 320.882 179.375 325.366C183.046 333.458 189.843 340.018 197.004 345.012C204.382 350.188 212.524 351.536 221.212 350.297C229.063 349.167 236.878 345.741 243.057 340.857C248.509 336.629 252.871 329.011 250.29 322.012ZM219.031 332.4C218.776 332.473 217.032 332.729 216.668 332.802C215.723 332.874 214.814 332.911 213.869 332.874C215.505 333.129 215.578 333.166 214.16 332.947C213.106 332.801 212.088 332.474 211.07 332.146C209.726 331.745 208.49 330.906 207.109 330.068C206.636 329.776 206.164 329.448 205.727 329.12C206.454 329.011 207.945 328.828 208.272 328.792C209.617 328.646 210.961 328.5 212.27 328.391C217.032 327.954 221.829 327.735 226.627 327.954C227.609 327.99 228.554 328.063 229.535 328.136C229.753 328.172 229.899 328.172 230.044 328.172C228.954 328.829 227.827 329.412 226.7 329.958C225.319 330.651 221.684 331.781 219.031 332.4Z" fill="black"/>
<path d="M373.763 523.104C370.71 519.459 364.967 518.948 360.605 519.021C359.697 519.021 358.752 519.131 357.843 519.167C357.225 519.204 355.735 518.802 356.971 519.203C354.39 518.365 351.7 517.818 349.011 517.417C339.524 516.069 329.892 515.996 320.768 512.825C313.935 510.456 305.539 505.936 301.904 500.396C300.668 498.5 299.069 497.334 297.36 496.751C297.506 486.326 298.814 475.246 295.834 465.258C295.252 463.363 294.307 461.941 293.071 460.921C294.125 459.682 295.143 458.479 296.124 457.203C299.796 452.428 302.958 447.289 305.575 441.858C310.627 431.506 313.681 420.389 316.189 409.199C317.642 402.675 318.878 396.114 320.296 389.589C321.604 383.43 322.804 376.796 325.421 371.073C328.256 364.913 333.563 360.539 337.197 354.89C341.196 348.657 343.74 341.33 345.703 334.223C347.666 327.006 349.919 319.826 351.337 312.499C352.973 304.006 353.082 295.805 352.718 287.203C351.991 271.166 352.355 255.091 354.281 239.163C354.863 234.279 349.738 230.16 345.303 230.16C339.96 230.16 336.907 234.315 336.289 239.163C334.799 251.556 334.253 263.985 334.399 276.451C334.472 282.684 334.762 288.88 335.126 295.113C335.453 301.127 334.181 307.323 332.8 313.155C331.091 308.38 327.42 304.626 321.168 303.387C314.298 302.002 308.119 303.97 301.795 304.881C297.106 305.574 292.708 306.776 288.964 309.146C284.093 303.897 274.025 305.647 273.516 314.941C272.68 329.667 277.95 343.7 278.314 358.316C278.496 365.97 278.205 373.698 278.205 381.388C278.205 387.658 278.641 394.073 278.205 400.342C278.241 399.832 278.169 400.051 278.06 400.452C276.133 400.452 274.316 399.941 273.153 399.249C273.007 399.139 272.862 399.066 272.789 399.03C272.68 398.884 272.462 398.702 272.099 398.337C271.044 397.317 270.027 396.26 268.973 395.239C265.665 392.105 261.449 389.99 256.832 391.448C254.106 392.323 251.816 393.854 249.018 394.547C246.291 395.239 244.947 395.385 241.966 395.312C239.313 395.239 236.877 394.292 235.46 390.647C233.679 386.09 229.499 382.919 224.41 384.341C220.048 385.544 216.341 390.865 218.122 395.458C221.502 404.06 227.318 410.803 236.696 412.735C241.021 413.646 245.237 413.428 249.563 412.771C251.38 412.48 253.161 412.152 254.942 411.678C256.323 411.35 257.668 410.949 258.941 410.293C260.794 412.006 262.939 414.084 264.902 415.286C270.027 418.385 277.151 419.186 282.894 417.911C296.27 414.995 296.343 401.764 296.234 390.683C296.125 378.035 297.142 365.059 296.015 352.448C295.834 350.333 295.543 348.183 295.216 346.069C295.288 346.105 295.361 346.142 295.434 346.178C304.812 349.969 315.207 349.24 322.913 343.7C322.549 344.392 322.149 345.085 321.713 345.777C319.024 350.224 315.025 353.687 312.154 358.024C309.101 362.581 307.174 368.084 305.757 373.333C300.05 394.328 298.596 416.854 288.31 436.354C283.257 445.94 275.479 453.449 270.136 462.816C266.21 469.705 260.649 478.562 252.107 477.287C246.364 476.448 240.803 474.626 234.987 473.933C228.772 473.204 223.174 474.954 217.068 475.537C211.688 476.047 205.837 473.86 200.82 472.074C194.75 469.924 188.498 468.101 182.501 465.732C162.364 457.859 148.988 437.557 134.304 422.759C126.125 414.485 113.404 427.278 121.582 435.516C136.376 450.46 149.134 467.701 167.635 478.38C172.324 481.078 177.521 483.447 182.755 484.832C188.644 486.399 194.205 488.914 199.984 490.773C205.327 492.486 211.47 493.798 217.068 493.543C222.738 493.288 228.045 491.174 233.752 491.794C244.801 492.96 254.724 498.063 265.665 492.96C271.299 490.336 275.842 486.107 279.623 481.223C279.586 482.171 279.55 483.155 279.513 484.103C279.295 489.169 279.368 494.236 279.405 499.302C279.441 510.529 279.732 521.718 280.531 532.908C281.222 542.167 278.423 551.935 276.17 560.829C273.698 570.524 271.299 580.11 270.063 590.061C269.445 594.945 274.606 599.101 279.041 599.101C284.42 599.101 287.437 594.945 288.019 590.061C290.454 570.706 298.305 552.7 298.487 532.945C298.523 529.008 298.16 525.035 297.869 521.099C302.122 524.088 306.811 526.493 311.645 528.534C315.789 530.284 320.078 531.779 324.512 532.581C327.674 533.164 330.909 533.455 334.108 533.747C337.416 534.039 340.869 534.877 344.14 534.986C348.829 535.168 353.081 537.537 357.807 537.209C358.534 537.173 359.224 537.137 359.951 537.1C359.915 537.465 359.879 537.756 359.842 537.756C359.661 538.522 359.406 539.287 359.152 540.016C360.388 536.48 358.388 543.151 358.388 543.479V548.144C358.388 554.341 358.534 560.537 358.279 566.697C357.734 578.725 353.808 591.045 349.483 602.162C344.94 613.862 339.56 625.235 333.781 636.352C327.965 647.542 321.786 658.732 314.807 669.229C309.61 677.066 304.702 685.048 297.869 691.609C295.107 694.233 291.799 696.566 288.273 697.988C282.494 700.284 276.133 698.972 270.099 699.992C267.192 700.503 264.211 700.576 261.267 701.232C258.323 701.851 255.451 702.763 252.543 703.455C249.854 704.111 246.764 703.965 244.038 704.22C240.367 704.549 236.696 704.913 233.025 705.278C207.072 707.72 181.047 707.1 155.095 705.059C129.688 703.054 104.535 699.008 79.782 692.958C69.75 690.516 59.4272 688.329 49.795 684.428C42.0892 681.33 35.2922 676.592 32.13 668.865C29.4039 662.194 28.1316 654.905 27.0412 647.797C25.769 639.815 24.4606 631.796 23.5156 623.74C22.4251 614.628 21.9525 605.443 21.8435 596.294C21.7708 587.583 21.5892 578.725 23.8428 570.269C26.8597 559.006 9.4853 554.231 6.50477 565.458C3.16077 577.996 3.59697 591.519 4.03315 604.349C4.50567 617.617 6.43215 630.702 8.39493 643.824C9.95789 654.285 11.2299 664.928 15.2645 674.806C19.5536 685.303 26.5688 692.52 36.4554 697.915C45.2879 702.726 54.7019 704.95 64.2977 707.574C76.8741 711.037 89.596 713.88 102.427 716.249C127.943 720.951 153.823 723.539 179.739 724.523C192.751 725.033 205.836 725.288 218.849 724.486C225.173 724.085 231.462 723.466 237.75 722.883C244.729 722.226 251.998 722.154 258.795 720.513C264.429 719.165 269.7 717.853 275.479 717.488C281.949 717.051 287.983 717.415 294.162 714.973C304.048 711.037 311.899 704.002 318.369 695.691C332.908 676.993 344.612 655.67 354.935 634.42C366.058 611.457 376.453 586.708 376.453 560.756V544.973C379.034 537.61 379.07 529.482 373.763 523.104ZM313.353 328.428C314.08 327.261 311.79 329.594 312.045 329.63C311.645 329.849 311.1 330.104 311.063 330.141C310.518 330.323 309.9 330.432 309.319 330.542C311.136 330.177 305.72 330.359 306.629 330.505C304.412 330.214 302.231 329.594 300.159 328.828C298.778 328.318 297.469 327.407 296.379 326.386C297.142 325.767 297.833 325.001 298.378 324.163C297.251 325.803 299.287 323.835 299.069 323.908C301.104 323.142 303.285 322.778 305.43 322.45C306.811 322.231 310.046 321.867 311.936 321.612C312.953 321.466 313.898 321.32 314.916 321.101C315.134 321.065 315.28 321.028 315.425 320.992C315.534 320.992 315.789 320.992 316.189 320.992C315.97 323.58 314.698 326.313 313.353 328.428Z" fill="black"/>
</g>
<defs>
<clipPath id="clip0_825_6">
<rect width="453" height="725" fill="white"/>
</clipPath>
</defs>
</svg>
