<?xml version="1.0" encoding="UTF-8"?><svg id="a" xmlns="http://www.w3.org/2000/svg" viewBox="0 0 1080 1080"><defs><style>.b{fill:#c9d367;}.c{fill:#e7582d;}.d{fill:#0b0402;}.e{fill:#040101;}.f{fill:#a53f20;}.g{fill:#ee5c2f;}</style></defs><path class="b" d="M918.39,716.12c37.51-23.5,69.3-52.04,93.45-88.33,38.64-58.07,39.1-128.56,1.04-186.93-53.08-81.4-156.47-131.51-248.97-156.44-140.92-37.98-289.37-38.91-431.09-3.85-97.08,24.02-208.27,75.23-263.73,160.74-37.23,57.41-37.29,126.87-.11,184.26,22.68,35.01,52.36,62.75,87.82,85.98,202.7,132.8,555.94,133.41,761.6,4.57Z"/><path class="e" d="M780.64,423.07c-.24.9-2.49,1.15-2.63,2.45-7.09.68-15.18-6.02-21.61-3.44-4.43,1.78-7.45,7.47-6.59,10.11,3.77,11.6,18.39-3.59,27.52-.3v3.41c-1.44.96-2.59,1.76-2.96,2.89-.54,1.68.5,3.96,3.74,4.26,2.29.21,5.46.55,6.31,1.81,3.98,5.86-14.51,21.3-20.49,29.9-4.22-14.14-13.68-16.51-24.4-18.19-4.32-3.32-8.56-10.34-16-8.76,3.94,6.82,10.08,8.64,15.36,11.02-.07,2.51.2,6.63,1.52,8.71,1.46,2.29,6.57,5.66,9.57,5.26,9.42-1.24,8.78,8.02,12.12,10.33,20.57,14.29,28.35,33.32,32.86,57.05,2.53,13.33,7.56,23.83,4.31,38.58-5.22,23.65-18.4,43.23-45.86,48.53,14.84,25.62,38.17,48.82,66.2,34.54,12.52-6.38,21.74-4.41,32.55,3.89,6.94,5.32,13.82,8.69,12.66,19.86-.46,4.44-1.93,6.56-5.16,9.06-3.98,3.08-7.28-2.49-11.56-2.74l-26.44-1.51c-9.75-.56-18.22-1.21-27.7-2.37-12.74-1.56-26.07,4.69-37.89,2.61-9.04-1.59-18.59-5.58-27.61-.09,2.53-13.02,16.66-15.95,30.79-16.63-.34-5.3-7.76-9.92-12.97-10.68-34-4.95-18.95-37.48-78.09-2.63,10.23,24.49,34.38,34.82,57.58,32.9,10.01-.83,20.28.23,30.3.23,5.17,0,11.02-1.24,17.9,3.77-8.31,6.27-18.01,14.7-26.18,19.49-20.37,1.81-40.34-3.58-60.43.41-12.46,2.47-24.74,5.34-37.49,1.85,6.02-13.68,17.66-11.66,31.16-15.67-11.92-13.7-28.77-19.49-45.12-26.45-8.54-26.51-13.08-24.87,1.19-36.97,1.58-1.34,2.47-2.31,3.25-3.44,1.16-1.68.08-1.65-.83-1.99-1.47-.56-3.81-1.3-4.62-.87-11.56,6.16-18.39-.15-27.51-3.92-9.23-3.81-20.31-3.72-29.57-9.73-3.05-1.98-67.2-35.44-76.16-33.05,14.94,28.78-3.06,49.27,17.65,72.74,14.53,16.47,33.21,11.7,50.77,3.64,6.96-3.19,46.28-.38,41.99,21.54l-8.81-1.91c2.2,3.39,5.8,5.79,4.89,9.34-14.59,5.24-28.45-2.74-43.08-1.94-13.24.73-24.84,3.49-38.16,1.59-17.2-2.45-34.04,3.05-53.09,1.82,4.22-16.5,20.32-15.54,35.16-15.62-6.08-7.78-15.02-8.03-22.53-12.69-7.56-17.19-17.3-32.84-32.17-46.02-14.74,17.86-32.01,23.29-52.21,25.12-10.36.94-44.36,17.13-34.82,24.77,9.07,7.26,44.82-14.13,56.94,15.94-13.41,10.24-53.54,6.7-71.85,6.51-22.03-.23-43.34,1.46-66.16-6.57,4.92-14.56,21.82-18.26,33.8-10.34,18.34,12.13,36.74-31.23,42.16-42.69,6.37-5.95,15.93-3.45,21.22-14.36-34.67-3.76-53.02,28.29-71.06,25.28-23.72-3.97-3.93,8.13-49.06,1.01-1.87-.3-29.82-14.15-36-18.82-4.95-3.75-7.84-8.25-15.06-11.12-1.56-.62-21.57-25.94-21.32-25.87-8.93-2.59-3.66-10.26-5.51-14.62-6.85-16.17-11.81-33.38-5.44-51.16,9.7-27.11,31.3-49.13,58.23-56,3.04-.78,8.63-1.84,11.7-2.17,19.82-2.09,58.68,9.71,69.22,32.8,8.5,18.63,13.13,40.47-2.83,56.6-20.51,20.74-57.17,18.02-77.29-2.36-9.76-9.89-12.39-22.95-11.94-34.86-.53-6.45,6.21-7.34,11.1-13.17-6.39,1.59-13.42,6.45-16.59,12.8-6.28,12.55-3.29,27.41-7.37,40.96,11.59,3.18,11.5,11.47,14.55,20.27,5.43-1.87,5.69-6.2,8.49-6.32,11.17-.47,9.73,22.02,17.45,22.55,13.01-26.35,13.99,6.44,37.99-1.49l.64-13.1c9.28-3.87,17.02,3.93,26.96,2.93,4.52-.46-.49-8.98-.35-12.06,5.96-6.72,29.85.94,32.32-6.18,2.18-6.26-8.7-13.62-8.42-16.25,1.09-10.3,21.33.35,27.8-5.75-1.03-7.57-7.16-8.64-9.35-15.52,14.82-8.21,57.36,3.07,37.39-19.54,14.37-10.97,46.53,15.12,53.38-4.23,2.41-6.82,1.23-13.97,8.13-15.32,18.41-3.59,22.27,18.89,31.56,10.65-.74-17.83-15.38-29.27-25.88-41.02-12.65-14.16-29.92-20.73-48.79-10.23,2.19-29.07,43.79-14.34,56.7-34.6,9.9-15.53,5.57-38.26-7.56-50.58-15.62-14.65-34.96-15.65-56.07-12.11,14.54-44.52,80.55,5.62,96.11-23.88,2.94-5.58.24-9.85-2.69-18.52,8.83-1.49,23.82-3.33,32.38,3.96,21.58,18.36,39.66,39.47,57.34,61.83,20.36,25.76,34.12,54.37,51.66,80.99,4.91-8.16-.89-14.97-.85-22.3.04-5.94,6.37,1.47,8.47,1.28,12.13-1.1,7.07-18.6,10.12-25.3,3.74-8.2,18.42-13.76,8.54-27.82,8.98-1.86,14.27-.85,21.92.16l9.7-13.46c9.32-.06,9.16,12.28,14.76,15.44,26.77,15.13,51.18,6.88,78.51,8.07-1.21,8.57,2.53,19.3-1.08,27.48-3.8,3.03-13.77.43-15.33,6.28ZM729.42,399.12c-2.53,3.42.88,5.75,3.42,4.97,1.09-.34,3.13.81,4.14-1.47.87-1.97-.4-4.16-1.52-4.03-1.65.19-4.99-.89-6.04.53ZM662.76,477.68c-5.73,5.27-5.51,12.14-8.38,20.58s-9.24,19.23,3.24,22.96c.51-3.5-.93-10.81,2.39-10.89,9.9,3.56,23.27,12.48,30.91,4.37,1.71-1.81,2.9-8.19-.12-9.65-20.83-10.06-8.7-18.33-24.65-24.32,1.08-9.5,6.26-20.7-4.01-29.11-2.99,9,5.6,19.4.62,26.06ZM247.15,499.59c-6.93-1.54-7.66,3.43-.19,2.47,3.8,15.63-11.29,12.87,12.22,36.07,7.29,7.19,16.17,10,26.41,7.42,6.42-1.62,16.82-5.48,18.37-16.66,2.27-16.39-12.72-34.53-28.52-35.67-11.02,12.46-16.05,2.08-28.29,6.37Z"/><path class="d" d="M249.86,463.95c-3.08.32-8.66,1.39-11.7,2.17-4.1-5.16.75-10.85,1.43-20.62-12.19-1.72-29.92-4.65-34.8-17.33-1.78-4.64,2.12-12.8-6.45-14.79-3.34-.78-8.24-8.41-5.36-11.1,6.96-6.48,19.03-6.04,26.75-1.4,6.18,3.71,9.54-3.98,13.51-3.75,23.23,1.34,35.95,25.14,34.27,46.07-4.22,1.6-9.19-.08-11.21,2.74-4.11,5.73-3.37,12.85-6.44,18.01Z"/><path class="d" d="M777.33,435.31v-3.41l.68-6.37c.14-1.31,2.39-1.56,2.63-2.45,4.1,3.52,31.76,11.61,37.77-.84,10.33,5.5,19.33,8.96,27.77,18.4-9.74,4.12-21.09,9.29-29.07,5.07l-10.76-5.68c-8.55-4.52-19.92-2.5-29.02-4.71Z"/><path class="f" d="M756.08,690.04v3.1c-10.02,0-20.29-1.06-30.3-.23l2.69-2.97c9.02-5.49,18.57-1.5,27.61.09Z"/><path class="f" d="M739.54,455.98l-.64,2.26c-5.28-2.38-11.42-4.2-15.36-11.02,7.44-1.58,11.68,5.45,16,8.76Z"/><path class="f" d="M227.02,516.13c-1.84.15-3.68-.03-5.49-.37,3.17-6.34,10.21-11.2,16.59-12.8-4.9,5.83-11.63,6.72-11.1,13.17Z"/><path class="c" d="M728.47,689.94l-2.69,2.97c-23.2,1.92-47.35-8.42-57.58-32.9,59.14-34.85,44.08-2.32,78.09,2.63,5.22.76,12.64,5.38,12.97,10.68-14.14.68-28.26,3.61-30.79,16.63Z"/><path class="c" d="M246.96,502.07l.19-2.47c12.25-4.29,17.27,6.09,28.29-6.37,15.8,1.14,30.79,19.28,28.52,35.67-1.55,11.18-11.95,15.04-18.37,16.66-10.24,2.58-19.12-.24-26.41-7.42-23.52-23.19-8.42-20.44-12.22-36.07Z"/><path class="c" d="M666.15,480.73c15.95,6,3.82,14.26,24.65,24.32,3.02,1.46,1.82,7.84.12,9.65-7.64,8.11-21.01-.8-30.91-4.37-3.32.08-1.88,7.39-2.39,10.89-12.48-3.73-6.17-14.36-3.24-22.96s2.65-15.32,8.38-20.58c1.19.76,2.04,2.54,3.39,3.05Z"/><path class="c" d="M778.01,425.52l-.68,6.37c-9.13-3.29-23.75,11.91-27.52.3-.86-2.64,2.16-8.33,6.59-10.11,6.43-2.58,14.52,4.12,21.61,3.44Z"/><path class="f" d="M666.15,480.73c-1.35-.51-2.2-2.29-3.39-3.05,4.98-6.67-3.61-17.06-.62-26.06,10.27,8.41,5.09,19.62,4.01,29.11Z"/><path class="f" d="M729.42,399.12c1.05-1.42,4.39-.35,6.04-.53,1.12-.13,2.39,2.06,1.52,4.03-1.01,2.28-3.06,1.13-4.14,1.47-2.54.79-5.95-1.55-3.42-4.97Z"/><path class="f" d="M247.15,499.59l-.19,2.47c-7.47.96-6.74-4.02.19-2.47Z"/><path class="g" d="M918.39,716.12c-205.66,128.85-558.89,128.23-761.6-4.57-35.46-23.23-65.14-50.97-87.82-85.98-37.17-57.39-37.12-126.85.11-184.26,55.46-85.51,166.66-136.72,263.73-160.74,141.72-35.06,290.18-34.13,431.09,3.85,92.51,24.93,195.89,75.04,248.97,156.44,38.06,58.36,37.6,128.86-1.04,186.93-24.15,36.29-55.94,64.83-93.45,88.33ZM221.52,515.76c1.81.34,3.65.52,5.49.37-.45,11.91,2.18,24.97,11.94,34.86,20.11,20.38,56.77,23.1,77.29,2.36,15.97-16.14,11.33-37.98,2.83-56.6-10.53-23.09-49.4-34.89-69.22-32.8,3.07-5.15,2.33-12.27,6.44-18.01,2.02-2.82,6.99-1.14,11.21-2.74,1.67-20.93-11.04-44.73-34.27-46.07-3.97-.23-7.33,7.46-13.51,3.75-7.71-4.64-19.78-5.08-26.75,1.4-2.89,2.69,2.01,10.32,5.36,11.1,8.57,1.99,4.67,10.15,6.45,14.79,4.87,12.68,22.61,15.61,34.8,17.33-.68,9.77-5.53,15.46-1.43,20.62-26.93,6.86-48.52,28.88-58.23,56-6.37,17.79-1.41,34.99,5.44,51.16,1.85,4.37-3.42,12.03,5.51,14.62-.25-.07,19.75,25.25,21.32,25.87,7.22,2.87,10.11,7.38,15.06,11.12,6.18,4.67,34.12,18.53,36,18.82,45.13,7.12,25.34-4.98,49.06-1.01,18.04,3.02,36.39-29.04,71.06-25.28-5.29,10.91-14.85,8.42-21.22,14.36-5.43,11.46-23.83,54.82-42.16,42.69-11.98-7.92-28.88-4.22-33.8,10.34,22.81,8.03,44.13,6.35,66.16,6.57,18.3.19,58.43,3.72,71.85-6.51-12.12-30.07-47.87-8.68-56.94-15.94-9.55-7.64,24.46-23.84,34.82-24.77,20.2-1.83,37.48-7.26,52.21-25.12,14.86,13.18,24.6,28.84,32.17,46.02,7.51,4.67,16.45,4.92,22.53,12.69-14.84.08-30.94-.89-35.16,15.62,19.05,1.23,35.89-4.27,53.09-1.82,13.32,1.89,24.92-.87,38.16-1.59,14.64-.8,28.5,7.18,43.08,1.94.91-3.56-2.69-5.95-4.89-9.34l8.81,1.91c4.28-21.92-35.03-24.73-41.99-21.54-17.56,8.06-36.24,12.84-50.77-3.64-20.7-23.46-2.7-43.96-17.65-72.74,8.96-2.39,73.11,31.07,76.16,33.05,9.25,6.01,20.34,5.92,29.57,9.73,9.12,3.76,15.95,10.07,27.51,3.92.81-.43,3.15.31,4.62.87.91.35,2,.31.83,1.99-.78,1.13-1.68,2.11-3.25,3.44-14.27,12.1-9.73,10.46-1.19,36.97,16.35,6.96,33.2,12.75,45.12,26.45-13.49,4.01-25.13,2-31.16,15.67,12.76,3.49,25.04.62,37.49-1.85,20.1-3.99,40.06,1.4,60.43-.41,8.17-4.79,17.87-13.22,26.18-19.49-6.88-5.01-12.73-3.77-17.9-3.77v-3.1c11.82,2.08,25.15-4.16,37.89-2.61,9.48,1.16,17.95,1.82,27.7,2.37l26.44,1.51c4.27.24,7.58,5.81,11.56,2.74,3.24-2.5,4.7-4.62,5.16-9.06,1.16-11.16-5.72-14.54-12.66-19.86-10.81-8.3-20.04-10.27-32.55-3.89-28.04,14.28-51.37-8.92-66.2-34.54,27.46-5.3,40.64-24.88,45.86-48.53,3.26-14.75-1.77-25.25-4.31-38.58-4.51-23.73-12.29-42.75-32.86-57.05-3.33-2.31-2.69-11.57-12.12-10.33-2.99.39-8.11-2.98-9.57-5.26-1.32-2.07-1.59-6.2-1.52-8.71l.64-2.26c10.71,1.68,20.18,4.05,24.4,18.19,5.98-8.6,24.47-24.04,20.49-29.9-.85-1.26-4.02-1.6-6.31-1.81-3.24-.3-4.28-2.58-3.74-4.26.36-1.13,1.52-1.93,2.96-2.89,9.1,2.21,20.47.19,29.02,4.71l10.76,5.68c7.98,4.21,19.33-.95,29.07-5.07-8.45-9.43-17.44-12.9-27.77-18.4-6.01,12.45-33.67,4.36-37.77.84,1.57-5.85,11.54-3.25,15.33-6.28,3.61-8.18-.13-18.92,1.08-27.48-27.33-1.19-51.74,7.06-78.51-8.07-5.6-3.16-5.44-15.5-14.76-15.44l-9.7,13.46c-7.65-1.02-12.93-2.03-21.92-.16,9.87,14.06-4.8,19.61-8.54,27.82-3.05,6.7,2,24.2-10.12,25.3-2.1.19-8.43-7.23-8.47-1.28-.04,7.33,5.76,14.14.85,22.3-17.54-26.63-31.3-55.23-51.66-80.99-17.68-22.36-35.76-43.47-57.34-61.83-8.57-7.29-23.55-5.45-32.38-3.96,2.93,8.66,5.63,12.94,2.69,18.52-15.56,29.5-81.57-20.64-96.11,23.88,21.11-3.54,40.45-2.54,56.07,12.11,13.13,12.31,17.47,35.05,7.56,50.58-12.92,20.25-54.51,5.53-56.7,34.6,18.88-10.49,36.14-3.93,48.79,10.23,10.5,11.75,25.14,23.19,25.88,41.02-9.29,8.25-13.15-14.24-31.56-10.65-6.9,1.35-5.72,8.5-8.13,15.32-6.84,19.35-39.01-6.75-53.38,4.23,19.97,22.61-22.57,11.33-37.39,19.54,2.19,6.89,8.32,7.95,9.35,15.52-6.46,6.1-26.7-4.55-27.8,5.75-.28,2.63,10.6,9.99,8.42,16.25-2.48,7.13-26.36-.54-32.32,6.18-.14,3.08,4.88,11.6.35,12.06-9.93,1-17.68-6.81-26.96-2.93l-.64,13.1c-24,7.93-24.98-24.86-37.99,1.49-7.72-.53-6.27-23.02-17.45-22.55-2.79.12-3.05,4.45-8.49,6.32-3.05-8.8-2.96-17.09-14.55-20.27,4.09-13.55,1.1-28.41,7.37-40.96Z"/></svg>