<?xml version="1.0" encoding="UTF-8"?><svg id="a" xmlns="http://www.w3.org/2000/svg" viewBox="0 0 989.87 426.93"><defs><style>.b{fill:#040201;}.c{fill:#0f0603;}.d{fill:#060201;}.e{fill:#0b0402;}.f{fill:#130704;}.g{fill:#f05b30;}.h{fill:#0a0402;}</style></defs><path class="g" d="M794.79,305.31c-19.33.09-35.82-.65-56.09,1.68l56.09.32,24.11-.28,108.6.33-.44,111.75-363.52-1.43.29-107.5-175.84,4.41,171.13,45.23-.91,60.85-512.57,6.25-1.33-105.71,51.75-1.43c-35.07-3.75-68.14-16.15-95.18-39.79-.27-15.81-1.32-30.71-.65-46.79,1.52-36.62,18.82-70.36,45.54-95.19l284.72-6.13c2.53-.05,4.2-.23,6.37-1.21-26.8-2.71-56.26-11.39-77.93-29.67l-27.57,26.51-193.46.03-29.02-28.55-.09-65.82L37.97,4.52h193.42s27.58,26.43,27.58,26.43C298.68-2.45,367.72-6.33,415.35,7.52c22.49,7.12,45.58,18.03,58.33,39.3l19.46-31.95,460.5,9.66,29.57,53.85-31.65,52.47c-3.19.73-5.93-.94-9.19.99,17.21,7.12,32.64,16.08,46.74,28.45.05,15.8,1.28,30.35.52,46.17-1.79,37.11-19.44,71.05-46.57,95.65l-128.06,2.89c-7,.16-13.05.53-20.2.33ZM291.79,49.5c-.71-2.03-.15-4.14,2.86-4.99.91-4.22-1.94-10.11-6.92-10.56-.67-.06-9.62-.35-10.48,1.01-.7,1.11,1.57,2.12,1.77,3.04,2.39,10.85,12,2.59,7.97,12.32-6.25,2.09-12.2,7.81-13.17,14.93-1.22,8.91,3.67,16.51,10.25,21.56,7.87,6.03,17.72,8.03,26.73,3.17,3.45-1.86,6.55-5.16,11.54-3.41-7.68,2-8.16,14.03-13.35,12.98-3.84-.77-7.63-2.42-9.53,2.14,2.41,2.17,29.45,2.92,32.16.39-.64-7.1-11.37-2.15-13.71-4.44,7.53-9,11.35-1.9,21.66-11.03,8.32,8.02,3.17,8.61,12.29,13.45-3.84.53-7.33.06-8.05,4.15,6.06-.84,24.41-1.26,29.04-.21,1.5.34,3.12-.83,3.53-1.68.5-1.02.55-2.94-.83-3.88-8.49-5.84-12.57,2.99-19.11-1.11s-2.75-11.9-5.84-18.91c11.93,3.55,19.13,10.69,32.22,12.06-2.05,2.06-2.6,3.61-1.85,6.03,2,6.43,7.15,3.84,11.57,9.54-2.53,1.19-5.1.63-6.89,3.64,2.65,1.25,5.47.46,8.34-.11,9.13-1.82,14.92,3.27,20.58-5.17.22-.34.03-.95.2-1.32,6.65-1.25,13.75.63,21,.71,2.19-2.25-.42-5.73-2.2-6.79-9.29-5.55-11.47,8.75-23.28-8.64,9.91-2.83,12.36-11.79,10.08-20.58-2.02-7.81-5.7-14.7-14.47-18.2,2.8-3.26,5.21-.96,6.55,1.77,2.31-.96,3.38-3.11,4.5-5,.54-.91,2.37-1.38,1.83-2.99,5.36.59,9.38,3.51,13.04.26-1.78-1.49-4.05-3.67-5.75-3.45-2.94,1.27-5.42,1.13-8.18.13l.04-.97c3.13-.6,3.05-3.79,2.5-7.41-6.35-.88-16.82,3.23-21.51-6.32-1.84,3.76-4.23,3.75-7.48,3.81.05,1.91.25,4.27-1.97,5.82-1.55,1.07,0,4.17-1.42,5.41-.92.81-2.84.57-3.2,1.42-.55,1.33.95,2.78-.66,4.5-6.69-12.41-14.36-23.9-25.21-33.32-1.9-1.65-4.77-1.46-7.16-1.3,1.88,15.54-19.34-1.77-22.63,10.17,7.59-1.29,15.05,1.5,16.03,9.08,1.6,12.39-13.2,6.12-14.61,13.55,2.58.09,5.04-1.42,7.53,0,4.72,2.7,12.64,11.72,9.18,12.78-1.23.37-5.55-5.29-7.58-1.47-.91,1.71-1.1,3.62-2.92,4.07-3.29.8-5.72-1.84-8.85-1.09-1.29.31-.47,3.42-1.48,3.6l-8.79,1.52c.54,1.3,1.94,3.39.77,3.95-1.77.85-4.73-.98-5.49,1.23.06,1.19,1.87,1.97,1.87,2.75-.02,3.37-4.99.61-6.65,2.31-.4.41-.29,2-1.05,2.56-1.7,1.25-4.11-1.44-5.8,0-.77.66-.41,2.73-1.2,2.96-4.8,1.41-3.86-4.73-8.91-.27-1.33-1.42-1.13-4.01-3.17-4.64l-1.87,1.15s-6.79-7.47-1.52-14.41c.99,8.31,6.43,12.79,14.07,12.29,3.15-.21,6.42-1.57,7.95-3.36,2.31-2.7,2.45-5.93,1.9-9.51-1.17-7.54-10.38-11.96-16.83-11.62ZM178.61,103.82l19.23-30.15,19.09,30.09c3.93.23,7.25.4,10.76-.31l-24.44-36.73,22.95-35.44c-3.58-.67-6.7-.55-10.06.21l-18.05,28.46-18.32-28.37c-3.75-.26-6.96-.73-10.25.48l23.2,34.94-24.18,36.96c3.21.38,7.41,1.16,10.06-.16ZM81.75,74.59c11.44-.34,17.75-9.58,17.88-20.3.14-11.68-7.83-21.23-19.98-21.5-10.98-.25-21.79,0-32.89.32l.67,72.17c2.9,1.04,6.13.86,9.25.11l-.03-30.05,25.1-.74ZM159.72,96.18l-37.54.06-.82-63.72c-3.05-.53-6.05-.56-9.17.07l.74,72.45,47.06-.42c.41-2.89,1.04-5.88-.27-8.44ZM502.78,103.79c3.15.55,5.64,1,8.37-.14l1.29-67.18c-1.02-1.29-5.84-1.52-6.29,0-4.57,15.39-17.11,9.91-17.22,13.42-.03.84-.61,3.63.35,3.9,4.62,1.3,9.17-.13,14.36.96l-.86,49.04ZM540.29,105.21c9.34,2.62,19.5,1.65,26.45-5.06,9.11-8.8,9.5-24.33.98-33.69s-21.52-9.45-31.98-2.93c1.12-7.07,2.56-13.23,4.64-19.28l29.66.48c.61-2.63.91-5.15-.04-7.43l-35.78-.62-8.07,36.02c11.96,3.38,8.6-6.78,23.54-6.26,9.4.32,15.78,7.57,15.44,16.9-.36,10.1-7.98,16.72-17.95,15.75-7.93-.78-13.82-5.84-14.91-14.01-2.87-.28-5.27-.52-8,.04-.13,9.23,6.33,17.39,16.01,20.1ZM632.27,106.61c3.32.48,5.46.57,8.29.09l1.38-67.94c-2.33-.63-4.72-.84-6.6.22-.95,7.97-8.46,12.64-16.36,12.32-.99,1.05-1.18,5.17.08,5.28l14.07,1.18-.86,48.86ZM682.76,45.23c6.82.12,12.1,4.57,12.79,11.54,2.68.93,5.25.91,8.24.3-.71-11.01-9.11-18.41-19.92-18.99-11.41-.61-20.93,5.47-24.87,16.52-5.91,16.56-6.33,48.81,16.14,54,10.01,2.31,19.37-.53,25.29-8.49,7.63-10.26,5.61-24.61-4.3-32.31s-23.51-5.61-31.86,3.55c.08-13.21,4.33-26.38,18.5-26.13ZM799.57,109.72c2.93,1.08,6.6,1.58,8.5-.25l1.45-69.8c-4.17-.5-8.01-.87-11.88.1l-23.95,57.45-21.88-58.74c-4.26-.45-7.69-.86-11.52-.1l-1.49,70.52c2.89.49,5.2.63,7.99.02l1.68-55.83,21.14,55.93c.69,1.82,5.62.82,7.19.35l23.4-55.25-.63,55.59ZM863.74,90.41l6.77,21.14c3.29.52,6.41.9,9.66-.13l-24.43-70.78c-3.85-.5-7.01-.82-10.47,0l-27.18,69.61c3.29,1.02,6.08.77,9.06.35l8.11-21.11,28.48.91ZM886.26,89.72c-.07,7.21.92,13.33,5.02,18.2,4.34,5.16,10.9,6.27,17.57,6.17,9.78-.15,18.43-6.53,18.67-16.84l1.24-55.04c-3.56-.48-6.21-.64-8.84-.05l-1.4,54.66c-.17,6.61-5.58,10.17-11.67,9.89-5.29-.24-9.52-2.45-10.78-7.81-.71-3-.9-5.92-.86-9.28-3.03-.45-5.98-.82-8.94.09ZM612.31,82.45c.59-2.4,1.15-6.02-.4-7.15l-25.43-.56c-.48,2.36-1.32,5.65.26,7.19l25.57.52ZM646.68,124.97l-26.07-.9-129.61-2.76-18.74-33.61c-7.67,10.94-17.35,18.99-29.05,25.24-16.72,9.5-34.98,13.64-53.56,17.42l231.89-4.82,25.14-.57ZM424.66,218.96c9.42-.47,16.89-1,25.09-.52,15.44.9,17.72,15.02,20.73,27.08,1.88.4,4.23.76,5.84-.48l-1.91-61.02c-2.19-.61-3.91-.46-5.95.08-1.96,12.21-4.19,25.75-19.7,27.37-8.01.83-15.71.92-24.33.86l-1.99-63.75,39.9-.9c5.04-.11,9.6,1.17,13.44,4.6,7.22,5.73,12.49,13.7,15.89,22.03,1.43.87,4.52.88,5.98-.27l-1.09-33.88-122,3.86c-6.22,10.37,23.99.62,24.54,18.41l3.61,115.71c.17,5.37-3.35,9.3-8.04,10.21l-15.23,2.93c-1.27.24-.8,3.73-.17,4.67l131.18-4.13,1.49-42.16c-1.34-.93-5-1.13-5.52.18-3.84,9.64-8.23,18.51-13.86,27.12-3.26,4.98-7.78,7.77-13.95,8.52-12.99,1.59-26.14,1.99-39.2,1.49-7.58-.29-12.64-5.12-12.9-12.81l-1.87-55.19ZM210.76,296.72c-1.09.22-.4,3.42.31,4.48l72.25-2.5c17.3-.6,33.47-5.89,47.96-14.94,19.29-12.05,30.97-31.69,32.24-54.38,1.64-29.41-9.41-56.39-35.84-70.83-13.86-7.57-29.15-11.97-45.21-11.53l-75.39,2.07c-.6,1.68-.78,4.24.1,4.72,7.31,1.55,21.99,1.91,22.33,12.81l3.71,116.6c.17,5.21-2.51,9.57-7.15,10.49l-15.32,3.04ZM125.19,307.18c38.74-4.32,66.99-34.42,68.46-72.9.76-19.7-2.92-39.07-14.8-55.15-16.25-21.98-42.65-32.79-69.87-30.42-28.32,2.47-53.74,19.33-64.58,46.06-7.93,19.54-8.45,41.92-1.75,61.8,11.69,34.7,46.18,54.67,82.54,50.61ZM653.47,256.17c.36-1.25-3.63-2.35-4.25-.67-4.12,11.13-11.15,28.9-24.73,29.43-2.76.11-5.57-.71-6.67-2.39-1.32-2.02-2.22-4.75-1.53-7.42l20.25-78.94,28.32-1.23c.7-2.52,1.56-4.3,1.9-7.09l-27.99.43,8.8-34.26c-6.6-.39-12.75.16-19.3.48l-8.7,34.55-21.24.84c-1.3,2.25-1.88,4.64-2.26,7.24l20.92-.23-17.57,66.94c-1.34,5.11-1.92,10.43-.33,15.33,2.13,6.56,8.36,9.61,14.72,10.88,10.65,2.12,20.5-.98,27.2-9.59,5.54-7.13,9.86-15.23,12.45-24.29ZM923.82,196.71c8.73,5.87,13.8,24.01,21.56,19.84,1.77-.95,3.52-3.04,3.78-5.82.53-5.8-17.68-10.97-23.42-17.58,9.56-4.28,27.77.05,28.93-7.4.42-2.71-.46-5.14-2.76-6.96-4.86-3.83-18.68,9.2-27.15,10.88,1.53-10.06,13.34-22.8,8.46-28.29-1.68-1.89-4.59-2.47-7.46-1.52-6.78,2.27-1.72,21.51-4.34,28.83-8.69-5.73-15.29-26.88-23.63-18.83-2.27,2.19-3.14,6.75.39,8.8,7.52,4.37,15.16,7.82,21.89,13.39-8.93,2.39-17.16,2.17-25.63,3.14-4.45.51-4.91,5.31-3.48,8.53,4.23,9.55,18.89-6.78,29.17-7.91-1.26,9.62-13.57,22.51-7.8,28.18,1.51,1.48,4.51,2.18,6.88,1.24,7.07-2.82,1.35-18.68,4.61-28.54ZM707.95,288.81c15-1.01,27.66-7.17,37.69-17.74,16.64-17.54,27.07-47.02,16.48-70.04-5.85-12.7-18.35-19.88-32.35-18.72s-25.46,6.54-35.09,16.05c-17.53,17.32-28.99,47.12-18.76,70.99,5.47,12.77,17.74,20.41,32.03,19.45ZM850.74,254.97c-8.47,2.63-12.05,11.48-9.19,19.02,2.65,6.98,10.53,10.59,17.84,8.4,7.67-2.3,11.84-10.3,9.5-17.94s-9.96-12.02-18.16-9.48ZM792.73,257.07c-8.25,3.18-11.1,12.36-7.81,19.54s11.33,9.78,18.18,7.29c7.76-2.82,11.2-11.23,8.57-18.34-2.78-7.5-10.92-11.58-18.94-8.5ZM586.9,324.95c-1.13,1.46-.44,2.82.36,3.42.53.4,1.88.23,2.4-.69.32-.56.23-1.59.02-2.56-.14-.63-1.7-1.56-2.78-.18ZM615.03,335.98l10.6-10.85c-4.88-3.63-12.42,9.34-17.57,12.3-.86-4.44.1-7.96-.49-12.19-.15-1.11-3.61-1.17-3.62.03l-.15,27.17c0,1.06,2.65,1.04,3.25.52,1.8-1.53-2.36-10.51,5.04-13.81l9.74,13.21c1.08,1.47,3.69,1.24,4.69.32l-11.49-16.69ZM648.26,325.72c-.51,7.33.52,13.71-.59,20.24-.6,3.5-4.48,4.41-7.27,4.25-12.96-.7-2.4-25.2-8.04-25.81-.57-.06-2.09-.05-2.11,1.04l-.26,18.87c-.08,5.6,4.05,8.82,9.41,9.32,4.6.42,11.01-1.02,11.98-6.39,1.32-7.35.71-14.89.51-21.99-.03-.87-3.52-1.06-3.62.48ZM680.67,351.97l.12-24.71c0-1.86-.76-2.66-2.48-2.4-2.71.42-.05,16.04-1.91,20.96-4.74-6.34-8.51-12.24-12.42-18.96-.8-1.38-5.01-3.63-5.27-1.3-1.01,8.93-.4,18.48-.39,27.25,0,.83,3.27.84,3.36-.23.6-7.28-.5-13.61.65-20.7,3.39,3.64,13.03,21.17,15.06,21.51,1.02.17,3.26.53,3.27-1.43ZM700.41,341.8c2.98.12,4.96-.24,7.52.6.34,4.19-2.52,7.43-5.8,8.15-3.56.79-7.25-.1-9.55-3.26-3.21-4.4-3.19-10.7-.44-15.34,1.87-3.17,5.02-4.02,8.15-4,7.85.05,5.94,8.22,10.67,5.74.78-.41.23-2.28-.42-3.49-3.15-5.77-10.09-6.94-16.19-4.69-5.12,1.89-8.19,7.61-8.19,13.8,0,5.7,2.44,11.02,6.79,13.32,5.23,2.76,10.55,1.95,15.33-1.55,5.46,10.33,3.44-10.53,3.57-12.37-4.21-.4-8-.79-11.74.08-.77.18-.66,2.96.33,3ZM731.26,354.05c5.16-.7,7.91-4.14,7.99-8.3.21-11.64-18.06-6.51-17.74-13.96.07-1.62,1.26-3.2,3.36-3.73,9.93-2.55,8.3,6.09,11.33,5.69.59-.08,1.98-.01,1.86-1.21-.6-6.29-6.56-8.56-12.28-7.96-4.2.44-7.51,2.64-7.97,6.35-.49,3.99,1.53,7.19,5.78,8.35l7.8,2.13c2.81.77,4.18,2.9,3.79,5.42s-2.59,3.81-5.3,4.12c-5.25.6-8.66-1.95-9.95-6.74-.21-.78-2.83-.75-3.12.02-.26.7-.12,2,.24,3.04,1.95,5.67,7.97,7.64,14.2,6.79ZM748.91,342.03c4.57-.22,7.91.51,11.3-.61,3.83-1.27,5.3-4.86,5.01-8.48-.8-9.99-11.92-7.44-20.53-7.5l-.33,25.92c-.02,1.84.55,2.58,1.93,2.59,4.05.05.71-6.8,2.62-11.92ZM786.42,354.14c.69.32,3.68.34,3.29-.76l-9.77-27.09c-.41-.94-4.05-1.1-4.49-.17l-10.31,27.38c1.37.78,2.51.84,3.55.13,1.14-.77,1.85-5.91,3.43-7.46,1.01-.99,9.07-1,10.81.4,1.51,1.22,1.87,6.83,3.49,7.57ZM814.31,354.34c3.18,0,.58-11.51-1.77-13.71,3.16-2.68,4.24-5.73,3.36-9.24-2.07-8.27-13.85-5.44-21.54-5.67l-.09,27.48c0,1.21,2.09,1.22,2.98.93,2.01-.67-.32-10.23,1.76-11.4,3-.93,7.81-1.05,10.45.72,3.94,2.64-.28,10.91,4.85,10.9ZM833.1,337l10.66-10.72c-5.4-3.43-12.36,9.46-17.7,12.25l-.53-12.21c-.04-.87-3.52-.89-3.53,0l-.21,26.9c-.01,1.43,2.68,1.44,3.3.91,1.54-1.31-2-11.61,4.85-13.02,4.29,2.82,6.52,9.13,10.24,12.8.98.97,4.29.61,3.69-.32l-10.78-16.58ZM896.09,353.82c.71-9.37.2-17.65.37-26.51.02-1.24-1.61-1.29-2.16-1.16-3.21.75-.39,15.76-1.91,21.39l-13.98-20.88c-.54-.81-3.88-1.14-3.98-.1-.83,8.65-.39,17.04-.62,25.8-.05,1.82.9,2.6,2.45,2.31.8-.15,1.2-.84,1.24-2.29l.51-19.32c5.05,6.77,8.95,13.48,13.63,20.55.77,1.16,4.32,2,4.46.22ZM866.83,341.23c1.04-.03.78-2.85.06-2.87l-13.98-.52c-.35-2.83-.36-5.45.04-8.17,4.43-.97,16.22,1.61,16.15-1.85-.06-3.18-15.88-1.38-20.26-1.59l-.09,28.17c6.9.46,13.12.31,19.76.21,1.1-.02,1.26-3.07.35-3.21-5.56-.8-10.48-.07-16.02-.4-.52-3.14-.3-6.23.09-9.42l13.88-.36ZM313.26,366.3l-.6-35.74c-2.41-.58-4.34-.67-6.57.07l.84,35.38c1.48,1.17,4.02.74,6.33.3ZM361.08,331.1c-1.09,1.03-1.02,4.05-.03,5.01,1.1,1.07,4.5,1.55,5.22.37.9-1.47,1.17-4.61.18-5.55s-4.24-.9-5.37.17ZM371.63,331.14c-.98,2.37-.53,5.37.89,5.56,1.61.22,4.36.67,4.75-.47.6-1.75,1.09-5.16-.26-5.62-1.21-.41-4.84-.77-5.37.53ZM270.04,366.41c.1,1.46,4.71,1.04,5.69.18l-.04-35.03c-3.5-.54-6.4-.59-9.63.07l-8.33,24.89-9.23-24.86c-3.15-.51-6.25-.44-9.26-.03l.16,35.36c1.88.6,3.99.67,6.2.09l.53-24.03,8.52,24.12c1.63.36,5.67.74,6.13-.65l7.64-23.06,1.62,22.96ZM589.47,352.56c.32-3.09,1.32-20.84-1.1-20.49-.46.07-1.95-.31-1.98.62-.19,6.62-.35,12.78-.05,19.51.03.74,3.04,1.2,3.12.35ZM78.02,347.46l-.04,2.72c-1.29.94-3.92,1.97-3.77,4.12.16,2.3,3.11,2.64,4.7,4.25-1.76,1.53-3.19,3.24-3.12,5.32-.32-.04-.67.03-.99.02-.24,0-.48.09-.71.11.18-1.23-.54-2.32-1.8-3.08-5.47-3.29-9.5-7.73-15.62-10.85l.58,51.52c5.46.69,11.16.41,16.99.15l.48-11.54c3.71,1.53,4.74,6.33,8.61,8.42s9.84-.02,12.4-3.19c1.6-1.99,2.03-4.15,3.96-5.05-.03,3.38.89,6.76.51,10.81l17.08.02-.55-51.34c-4.81,1.77-7.59,5.38-11.24,7.79-1.79,1.32-3.4-1.39-5.13-1.68-3.18-.53-4.82,2.97-8.35,3.52.35-3.44-.76-6.38.59-8.97.4-.77.08-1.8.27-2.72.27-1.35-.91-1.85-2.26-1.44-.38-.4-1.33-.48-1.57-.93-.36-.71-.31-1.94.83-2.09,1.23-.17,3.15.91,3.91.02,1.66-1.96,2.1-4.9,1.14-6.6-2.87-5.06-11.54-4.67-13.5-2.37-1.35,1.58-3.61,4.03-2.03,6.29.46.65,1.59.64,1.98.79.5.19.99,1.05.64,1.51-1.46,1.92-3.75-.76-5.09.19-.75.53-1.21,1.58-.81,2.39.38.77,1.13,1.37,1.92,1.89ZM217.93,411.08l-1.09-79.06c-6.24-.02-10.77-.41-15.79.26l-12.03,18.22-.65-18.09-22.46.09.46,54.05-12-53.74c-5.83-.14-11.23-.49-16.88.2l1.12,79.22,15.23.02,12.53-18.19.75,17.95c7.59.45,14.99.22,22.22-.53l-.16-52.4,11.57,52.34c5.92.16,11.29.81,17.18-.35ZM370.39,366.57c6.81-.33,10.83-4.98,11.39-11.16.51-5.6-.86-11.11-5.59-13.77-4.32-2.43-10.34-2.33-14.34.4-4.59,3.14-5.7,8.62-4.81,14.17,1.08,6.68,5.92,10.73,13.34,10.37ZM283.23,366.58c3.95,1.99,7.67.22,11.61-.37,2.65-.39,5.43,1.63,8.21.16-.9-5.7-.82-11.38-.89-16.96-.08-6.09-5.1-8.51-10.52-8.6-5.21-.09-11.55,2.51-11.23,8.6.09,1.61,5.38,1.31,6.07-.16,1.17-2.51,3.21-3.72,5.73-3.48,1.64.15,4.84,2.89,2.82,4.63-2.83,2.45-14.89.48-15.78,8.66-.33,3,.97,6.01,3.97,7.52ZM343.32,345.82c6.95-.01,2.74,14.4,4.39,19.63.8,1.38,5.57,1.23,5.97-.29-.58-10.65,3.35-22.42-6.4-24.9-3.78-.96-6.39,1.93-9.19,3.33-4.22-3.2-9.42-4.9-13.79-.4-.21-2.7-6.15-3.21-6.5-1.35-1.51,8.04.16,16.11-.06,24.36,2.58.53,4.46.38,6.61-.19l-.1-15.7c-.01-2.3,1.38-3.95,3.09-4.33,7.84-1.72,4.06,13.38,5.11,20,1.61.52,5.16.98,6.42-.31,1.78-5.26-3.45-19.83,4.46-19.85ZM588.22,395.37c5.28-.5,8.32-3.42,8.67-7.52,1.1-13.02-18.37-7-17.59-15.02.17-1.72,1.55-3.15,3.59-3.64,10.25-2.46,7.85,7.77,12.44,5.54.93-.46.43-1.91-.02-3.12-1.9-5.12-7.26-6.35-12.35-5.7-4.14.52-7.21,3.17-7.49,7.08-.25,3.49,2.04,6.47,5.87,7.52l7.83,2.14c2.56.7,4.11,2.75,3.85,5.09-.24,2.17-2.02,3.94-4.6,4.4-10.09,1.79-9.55-7.16-11.39-7.18-.8,0-2.03-.15-2.4.46-.51.85-.19,2.03.16,3.03,1.9,5.46,7.35,7.49,13.43,6.92ZM650.92,379.75c-.48-8.85-6.85-14.06-14.52-13.83-7.78.23-13.24,6.16-13.53,14.37-.32,9.05,5.86,15.82,14.39,15.56,8.25-.25,14.17-6.65,13.66-16.09ZM606.39,391.38l-.39-24.27c-.02-1.03-3.41-1.01-3.47-.02-.54,9.18-.27,18.24-.31,27.78,5.99.49,11.51.49,17.6.23,1.24-.05,1.04-1.57.99-2.26-.18-2.56-10.15-.49-14.42-1.47ZM665.79,393.9c.63-8.17-.29-15.23.73-22.81,1.06-1.95,8.31.26,8.77-1.43.16-.6.28-1.5-.18-2.36-.26-.47-1.1-.43-2.24-.43l-19.08-.08c-1.34,0-1.13,2.25-.76,2.97.68,1.34,8.52-.55,8.76,1.37,1.05,7.93-.2,15.3.45,23.3.13,1.56,3.4,1.54,3.56-.53ZM691.88,392.79l.32-21.93c2.68-.54,4.95-.15,7.59-.31,1.72-.11,1.84-1.37,1.54-2.62-.19-.75-1.15-.79-2.41-.8l-18.77-.11c-1.2,0-1.43,1.27-1.37,1.84.36,3.1,5.68.45,9.31,2.23l.06,23.2c0,1.54,1.51,1.36,2.18,1.44,1.44.18,1.52-.91,1.55-2.94ZM718.26,396.11c5.29-.61,8.09-4.1,8.21-8.29.35-11.96-19.87-6.59-17.64-14.75.47-1.73,1.94-2.81,3.91-3.19,10.1-1.96,7.67,8.11,12.14,5.61.67-.38.43-1.79.11-2.76-1.72-5.21-6.99-6.71-12.17-6.12-4.07.46-7.22,2.77-7.76,6.32-.59,3.92,1.47,7.23,5.58,8.32l7.82,2.07c2.88.76,4.36,2.97,3.95,5.52s-2.67,3.93-5.58,4.13c-11.19.8-7.11-9.33-12.44-7.08-1.06.45-.5,2.15-.12,3.29,1.88,5.7,7.76,7.66,13.98,6.95ZM744.39,383.8c3.15.6,5.44-.17,7.9,1-.14,4.07-1.98,6.63-5.07,7.73-2.41.86-5.77.85-8.47-1.1-4.32-3.11-4.93-8.72-3.86-13.72.97-4.54,4.31-7.17,8.39-7.52s6.84,1.67,8.89,5.55c.47.9,3.16.77,3.44-.03.26-.73-.22-1.96-.7-2.94-2.92-5.9-9.66-7.1-15.63-5.26-5.59,1.72-8.75,7.52-8.87,13.9-.11,5.63,2.35,11.08,6.52,13.32,5.39,2.9,10.94,2.18,15.53-1.47,5.57,10.61,3.46-10.69,3.62-12.22-3.82-.58-8.18-.56-11.79-.1-.66.23-.78,2.7.11,2.86ZM781.42,396.14c.7.34,3.67.33,3.28-.77l-9.77-27.09c-.4-.94-4.08-1.1-4.47-.15-3.68,8.91-7.17,18.46-10.28,27.38,1.07.97,2.56.8,3.52.12,1.17-.84,1.85-5.91,3.43-7.47,1-.98,9.07-1.01,10.81.4,1.51,1.22,1.85,6.78,3.49,7.57ZM796.65,394.97l.25-23.51c3.96-1.46,9.97,1.36,9.33-2.65-.13-.83-.88-1.15-2.38-1.17l-18.09-.22c-1.73-.02-2.45.98-2.16,2.38.48,2.27,6.2.27,9.19,1.72l.15,24.43c1.18.48,3.69.69,3.71-.99ZM826.31,396.4c.77.31,3.54.18,3.16-.86l-9.88-27.1c-.38-1.05-4.12-.95-4.5.06l-10.28,27.41c5.72,2.63,4.63-5.41,6.9-7.28,1.5-1.23,9.45-1.38,11.05.15s1.57,6.83,3.54,7.63ZM856.01,395.66l.27-25.4c.02-1.97-.9-2.44-2.02-2.45-3.72-.04-.31,16.03-2.47,21.12l-13.39-20.29c-.61-.92-4.24-1.45-4.32-.37-.65,9.2-.19,17.9-.33,26.95-.02,1.23,1.72,1.18,2.38,1.08,2.74-.41.17-16.27,1.77-21.45l13.73,20.71c.77,1.16,4.36,1.48,4.38.09ZM879.25,393.92c-7.47-.52-5.52-7.24-8.02-6.99-1.04.11-1.65-.06-1.93.35-.61.9-.35,1.95-.06,2.88,1.68,5.48,7.11,7.51,12.56,7.04,4.19-.37,7.2-2.77,8.35-5.82,1.6-4.27-.94-7.18-3.29-10.17,1.26-2.4,4.01-5.36,2.2-8.86-1.07-2.06-3.13-4.03-6.4-4.69-6.08-1.22-12.76,1.74-12.63,8.67.01.78,2.3.73,2.88.38,1.43-.86.72-6.69,7.93-6.07,3.02.26,5.14,2.49,4.9,5-.64,6.66-10.17,2-8.07,6.58.65,1.43,9.4-.31,8.84,6.61-.27,3.33-2.92,5.39-7.25,5.09ZM906.05,394.23c-8.67.52-7.06-6.94-9.73-6.98-.56,0-2.18-.16-2.12,1.04.35,6.73,6.47,9.66,12.56,9.19,4.42-.34,7.42-2.67,8.7-5.86,1.76-4.42-1.47-7.33-3.25-10.15,1.06-2.38,4.12-5.53,1.97-9.13-1.14-1.9-3.26-3.95-6.58-4.47-5.39-.85-10.93,1.15-12.26,6.74-.33,1.41.02,2.44.96,2.6,4.66.79,1.2-7,9.47-6.36,3.08.24,5.32,2.11,5.2,4.93-.23,5.21-7.42,3.78-8.07,5.26-2,4.52,8.01-.41,8.88,7.09.35,2.99-1.85,5.87-5.74,6.1ZM269.54,410.34l-13.3-20.86,11.76-14.28c-1.97-.3-5.92-1.71-7.46.01l-13.52,15.08-.46-14.87c-1.96-.84-4.12-.54-6.69-.37v35.94c2.51.38,4.34.19,6.77-.03.84-4.04-1.71-14.55,4.69-14.66,8.3,6.49,6.53,17.84,18.2,14.05ZM362.53,404.23c-6.95-.22-3.63-6.15-4.56-14.7,1.96-.68,4.03.35,5.41-.73s.94-4.27-.29-4.34l-4.19-.22c-2.36-.12-.33-4.71-1.21-7.2-.61-1.74-4.11-.07-5.32.72-1.66,1.09-.26,4.22-1.42,5.96-.76,1.14-3.83.31-4.02,1.31-.23,1.17-.41,2.86.09,3.79.45.83,2.79.25,3.99.59,2.24,4.23-1.34,14.42,2.53,18.61,2.48,2.68,10.36,3.37,10.6.62.13-1.45,1.02-4.31-1.63-4.39ZM532.33,406.69c2.23-6.49-3.15-19.86,4.94-19.78,2.33.02,3.42,1.86,3.46,4.44l.25,15.77c2.4.51,4.32.53,6.47-.03-1.31-9.97,3.49-24.85-7.17-25.53-3.59-.23-6.19.8-8.53,4.23-3.16-5.24-7.72-4.68-12.5-2.82-2.15.83-5.54-2.03-7.94-.08l.2,24.65c2.23.31,4.24.49,6.31-.03v-15.93c.02-2.37,1.56-4.2,3.56-4.41,1.37-.15,4.05.32,4.13,2.46l.73,17.54c1.32.36,5.54.96,6.09-.49ZM448.13,408.95c5.17-.91,7.47-4.94,7.19-8.93-.64-9.1-15.72-5.26-14.99-9.69,1.33-8.03,11.53,3.67,14.27-1.76,1.54-3.06-8.27-9.15-16.93-4.3-3.42,1.92-4.58,5.65-3.32,9.1,2.6,7.1,13.74,3.59,14.71,7.97-1.07,4.66-8.03,3.4-10.53.11-1.32-1.74-5.62-.05-5.07,1.66,1.91,5.86,8.85,6.87,14.66,5.85ZM475.35,400.79c-2.09,2.97-5.27,3.17-7.58,2.62-1.74-.41-4.7-3.43-3.49-5.29l16.76-1.05c.53-4.14,0-8.34-2.87-11.47-3.78-4.13-10.54-4.3-15.34-1.66s-6.46,8.61-5.68,14.15c1.03,7.25,6.32,11.69,13.64,10.82,3.94-.47,9.06-2.04,9.64-6.77.16-1.29-4.11-2.73-5.09-1.35ZM506.83,383.06c-2.46-.78-4.47-.45-6.66-.1l-.51,16.22c-.07,2.23-2.17,3.65-3.59,3.97-1.85.43-4.73-.07-4.85-2.54l-.82-17.14c-.87-1.4-5.29-1.25-6.25.17.64,9.4-3.47,25.47,8.62,24.86,2.99-.15,5.21-.63,7.27-3.11.61,1.55,1.28,2.78,2.32,2.78,1.51,0,3.54.1,4.65-.88l-.19-24.23ZM336.23,410.47c6.23-.11,9.16-3.59,9.12-8.52-.09-10.25-16.46-5.31-14.79-10.56,1.42-4.45,7.52-2.39,10.02.24,1.02,1.08,4.51-1.06,4.8-2.51-2.6-4.71-9.18-5.89-14.57-4.75-4.52.96-6.95,4.19-6.7,8.41.54,9.11,13.75,5.39,14.89,9.42.94,3.3-3.34,3.72-5.63,3.4-1.73-.24-3.3-1.04-4.96-3.21-.98-1.28-5.26.24-4.91,1.74,1.28,5.61,7.37,6.42,12.74,6.33ZM388.46,408.65l.48-15.98c.08-2.64,2.24-3.99,4.34-3.98,2.52,0,3.72,1.82,3.77,4.6l.31,15.65c2,.56,4.03.62,6.41-.01-.78-9.23,2.96-22.43-5.61-25.39-4.13-1.43-7.32,1.26-10.31,3.19-3.73-4.13-9.47-4.32-13.34-.88-1.39-.98-5.67-2.97-7.02-1.09-.81,8.18-.13,16.38,0,24.44,2.75.54,4.81.67,6.83-.2.29-4.82-2.6-19.17,3.02-19.95,7.83-1.08,3.95,12.17,5.14,19.94,1.25.36,5.16.99,6-.34ZM423.77,384.23c-1.19,5.97,3.07,19.92-5.51,20-2.54.02-3.72-2.18-3.79-4.92l-.37-15.22c-1.97-.46-4.84-1.07-6.51.33.13,6.65-1.04,14.6,1.3,20.9,2.17,5.84,9.68,4.45,13.96,2.33,2.11.11,4.86,2.43,7.21.91l-.37-24.82c-1.54-.51-5.48-.97-5.92.49ZM294.7,396.75c-.53-8.41-6.86-12.99-14.3-12.22-6.88.72-11.19,6.21-11.04,13.71.16,8,5.59,13.37,13,13.12s12.9-5.74,12.34-14.61ZM314.28,409.97c2.02.54,4.04.53,6.46.05-.77-8.67,2.62-21.73-4.97-25.21-3.69-1.69-7.49.53-10.16,1.18-1.87.46-6.94-3.18-7.43.42-1.07,7.79.14,15.87-.36,23.67,2.63.6,4.46.52,6.49-.08l.32-15.66c.05-2.62,2.1-4.12,3.73-4.48,8.65-1.93,4.63,12.88,5.91,20.12ZM96.83,413.33c3.41-.45,5.54-.99,7.9-.05,2.77,1.1,4.92-.87,6.7-1.13,1.41-.21,4.33,2.91,5.54.39,1.08-2.25.79-5.46-.24-8.64-2.8,3.75-5.82,4.64-9.76,2.61-1.49,1.77-.75,4.09-2.81,4.9-1-1.61.25-2.72.22-3.41-.03-.64-1.05-2.21-1.62-1.88-1.91,1.12-4.59.31-6.25,1.61-1.17.92-1.08,5.78.31,5.6ZM71.76,413.34c1.26-.59,1.14-4.76-.47-5.27l-7.15-2.31c-.71-.23-1.89,1.98-2.69,1.64-.64-.27-1.76-1.93-2.93-2.03-1.56,2.13-1.48,6.08-1.11,8.34l5.74-.66c2.34-.27,5.83,1.58,8.61.3ZM74.29,405.3c-.72.35-1.01,9.45.35,9.64,1.39.07,2.3-10.94-.35-9.64ZM82.34,411.01c.28-2.24,1.72-1.84,1.81.29-.2,2.21.89,2.37,2.19.38,1.53,1.37,3.31,2.27,4.92,1.59,1.89-.8,1.62-2.78,1.13-4.65-.55-2.1-.88-3.74-3.13-3.3-1.35.27-1.45,1.62-2.41,4.1-2.3-2.1-5.79-2.67-9.23-1.45-1.41.5-.41,4.41-.04,5.76,1.64-1.34.09-3.83,2.28-4.23.81,1.76.16,2.96.57,3.56.21.31,1.32.31,1.67.08.31-.21.18-1.14.26-2.13Z"/><path class="b" d="M210.76,296.72l15.32-3.04c4.64-.92,7.32-5.27,7.15-10.49l-3.71-116.6c-.35-10.89-15.03-11.26-22.33-12.81-.88-.48-.7-3.04-.1-4.72l75.39-2.07c16.06-.44,31.35,3.96,45.21,11.53,26.43,14.44,37.47,41.42,35.84,70.83-1.26,22.69-12.95,42.34-32.24,54.38-14.49,9.05-30.66,14.34-47.96,14.94l-72.25,2.5c-.71-1.05-1.4-4.26-.31-4.48ZM329.54,261.89c10.18-22.9,9.05-56.74-3.99-79.14-10.68-18.36-29.35-29.37-50.72-29.35-7.48,0-14.43.57-21.94,1.13l3.86,120.63c.28,8.82,6.17,15.41,14.65,16.6,24.46,3.44,47.65-6.26,58.14-29.86Z"/><path class="b" d="M125.19,307.18c-36.36,4.06-70.86-15.91-82.54-50.61-6.7-19.88-6.17-42.26,1.75-61.8,10.85-26.73,36.27-43.6,64.58-46.06,27.23-2.37,53.63,8.43,69.87,30.42,11.89,16.08,15.56,35.45,14.8,55.15-1.48,38.48-29.73,68.58-68.46,72.9ZM120.36,300.53c49.77-3.49,52.27-71.94,40.8-107.54-3.61-11.2-9.25-21.37-18.6-28.58-17.25-13.31-42.67-11.89-58.44,3.12-21.91,20.87-21.9,63.87-14.77,91.11,6.29,24.04,23.27,43.83,51,41.88Z"/><path class="d" d="M417.95,39.32c-.5.1-.81.81-1.09,1.16-.3.01-.65.12-.94.06-3.09-.57-5.11-1.98-6.16.24-1.89,3.99,4.05.34,5.65,2.53.6.83,1.34,1.87,1.57,3.05-1.12,1.88-2.19,4.03-4.5,5-1.34-2.73-3.75-5.03-6.55-1.77,8.76,3.51,12.44,10.4,14.47,18.2,2.28,8.79-.17,17.75-10.08,20.58,11.81,17.39,13.99,3.09,23.28,8.64,1.78,1.06,4.39,4.55,2.2,6.79-7.26-.09-14.36-1.96-21-.71-2.37-.14-5.77-2.02-9.07-.21,2.93.76,5.87,1.64,8.86,1.53-5.66,8.44-11.45,3.35-20.58,5.17-2.87.57-5.69,1.37-8.34.11,1.79-3.01,4.36-2.45,6.89-3.64-4.42-5.7-9.57-3.11-11.57-9.54-.75-2.41-.21-3.97,1.85-6.03-13.09-1.38-20.29-8.51-32.22-12.06,3.1,7.01-.98,14.63,5.84,18.91s10.61-4.73,19.11,1.11c1.37.94,1.33,2.87.83,3.88-.42.85-2.03,2.02-3.53,1.68-4.63-1.05-22.99-.63-29.04.21.72-4.08,4.22-3.61,8.05-4.15-9.12-4.84-3.97-5.43-12.29-13.45-10.32,9.13-14.13,2.03-21.66,11.03,2.34,2.29,13.07-2.66,13.71,4.44-2.71,2.53-29.75,1.78-32.16-.39,1.89-4.56,5.68-2.92,9.53-2.14,5.19,1.04,5.67-10.98,13.35-12.98-4.99-1.76-8.09,1.54-11.54,3.41-9,4.86-18.86,2.86-26.73-3.17-6.59-5.05-11.47-12.65-10.25-21.56.97-7.12,6.92-12.84,13.17-14.93,1.22-.41,3.62-.22,4.8-.82,6.45-.33,15.66,4.08,16.83,11.62.55,3.57.41,6.8-1.9,9.51-1.53,1.79-4.79,3.15-7.95,3.36-7.64.5-13.09-3.97-14.07-12.29-5.27,6.94,1.57,14.39,1.52,14.41l1.87-1.15c2.05.63,1.84,3.21,3.17,4.64,5.05-4.46,4.11,1.68,8.91.27.79-.23.43-2.3,1.2-2.96,1.69-1.44,4.1,1.24,5.8,0,.76-.56.65-2.15,1.05-2.56,1.66-1.7,6.63,1.06,6.65-2.31,0-.77-1.8-1.55-1.87-2.75.76-2.21,3.72-.38,5.49-1.23,1.16-.56-.24-2.66-.77-3.95l8.79-1.52c1.01-.17.18-3.29,1.48-3.6,3.13-.74,5.55,1.89,8.85,1.09,1.83-.44,2.02-2.36,2.92-4.07,2.03-3.82,6.35,1.85,7.58,1.47,3.46-1.05-4.46-10.07-9.18-12.78-2.49-1.42-4.94.09-7.53,0,1.41-7.43,16.2-1.15,14.61-13.55-.98-7.58-8.44-10.37-16.03-9.08,3.29-11.94,24.51,5.38,22.63-10.17,2.39-.16,5.26-.35,7.16,1.3,10.85,9.41,18.51,20.9,25.21,33.32,1.61-1.72.1-3.17.66-4.5.36-.85,2.28-.61,3.2-1.42,1.42-1.24-.13-4.34,1.42-5.41,2.23-1.54,2.03-3.91,1.97-5.82,3.25-.06,5.65-.05,7.48-3.81,4.68,9.55,15.16,5.44,21.51,6.32.55,3.62.63,6.81-2.5,7.41ZM405.79,34.81c0-.28-.22-.5-.5-.5s-.5.22-.5.5.22.5.5.5.5-.22.5-.5ZM388.84,52.61c-1.88,2.6-2.91,5.78-2.96,10.24,5.88-3.87,6.73,1.45,9.37-1.33,1.72-1.81-3.44-4.2-5.62-8.88-.11-1.6.72-3.28-.27-5.39-1.19,1.39-.35,3.01-.53,5.37ZM303.08,66.02c1.85-3.44-1.69-8.87-5.31-9.18-2.08-.18-5.29.83-6.98,1.42-2.12,3.04-.28,7.48,3.06,9.57,2.41,1.51,7.04,2.29,9.24-1.81ZM411.79,98.66c-11.58-5.48-11.16-9.72-21.52-2.39,1.89,4.68,8.29,9.18,12.92,6.91,2.76-1.36,4.45-4.71,8.6-4.52Z"/><path class="d" d="M424.66,218.96l1.87,55.19c.26,7.69,5.32,12.52,12.9,12.81,13.06.5,26.21.1,39.2-1.49,6.17-.75,10.69-3.55,13.95-8.52,5.64-8.62,10.02-17.48,13.86-27.12.52-1.31,4.18-1.12,5.52-.18l-1.49,42.16-131.18,4.13c-.64-.94-1.1-4.43.17-4.67l15.23-2.93c4.69-.9,8.2-4.84,8.04-10.21l-3.61-115.71c-.55-17.79-30.76-8.03-24.54-18.41l122-3.86,1.09,33.88c-1.46,1.16-4.56,1.15-5.98.27-3.4-8.33-8.67-16.3-15.89-22.03-3.83-3.42-8.39-4.71-13.44-4.6l-39.9.9,1.99,63.75c8.62.06,16.32-.03,24.33-.86,15.51-1.62,17.74-15.16,19.7-27.37,2.03-.54,3.75-.69,5.95-.08l1.91,61.02c-1.61,1.25-3.96.89-5.84.48-3.01-12.06-5.29-26.17-20.73-27.08-8.21-.48-15.67.05-25.09.52Z"/><path class="b" d="M217.93,411.08c-5.89,1.16-11.26.51-17.18.35l-11.57-52.34.16,52.4c-7.23.75-14.63.98-22.22.53l-.75-17.95-12.53,18.19-15.23-.02-1.12-79.22c5.65-.69,11.05-.34,16.88-.2l12,53.74-.46-54.05,22.46-.09.65,18.09,12.03-18.22c5.02-.67,9.56-.28,15.79-.26l1.09,79.06Z"/><path class="d" d="M707.95,288.81c-14.3.96-26.56-6.68-32.03-19.45-10.23-23.88,1.23-53.68,18.76-70.99,9.62-9.51,21.62-14.93,35.09-16.05s26.5,6.02,32.35,18.72c10.59,23.02.16,52.5-16.48,70.04-10.02,10.56-22.68,16.72-37.69,17.74ZM715.55,283.37c35.89-13.02,40.46-109.53,7.19-95.95-34.26,13.99-41.51,108.4-7.19,95.95Z"/><path class="d" d="M653.47,256.17c-2.59,9.06-6.91,17.16-12.45,24.29-6.7,8.61-16.55,11.72-27.2,9.59-6.36-1.27-12.58-4.32-14.72-10.88-1.59-4.9-1.01-10.22.33-15.33l17.57-66.94-20.92.23c.38-2.6.96-5,2.26-7.24l21.24-.84,8.7-34.55c6.55-.32,12.69-.87,19.3-.48l-8.8,34.26,27.99-.43c-.34,2.8-1.2,4.57-1.9,7.09l-28.32,1.23-20.25,78.94c-.68,2.67.21,5.4,1.53,7.42,1.1,1.68,3.91,2.5,6.67,2.39,13.58-.54,20.61-18.3,24.73-29.43.62-1.67,4.61-.58,4.25.67Z"/><path class="h" d="M799.57,109.72l.63-55.59-23.4,55.25c-1.58.48-6.5,1.47-7.19-.35l-21.14-55.93-1.68,55.83c-2.79.61-5.1.47-7.99-.02l1.49-70.52c3.83-.76,7.26-.34,11.52.1l21.88,58.74,23.95-57.45c3.87-.98,7.71-.6,11.88-.1l-1.45,69.8c-1.91,1.82-5.58,1.32-8.5.25Z"/><path class="e" d="M81.75,74.59l-25.1.74.03,30.05c-3.12.75-6.35.92-9.25-.11l-.67-72.17c11.1-.31,21.91-.56,32.89-.32,12.15.27,20.12,9.82,19.98,21.5-.13,10.72-6.44,19.96-17.88,20.3ZM78.22,67.28c7.92-.53,12.17-6.13,12.25-13.09.09-7.33-4.62-13.03-12.31-13.35s-14.57,0-22.07.28l.38,26.4c7.42.23,14.32.27,21.75-.23Z"/><path class="h" d="M682.76,45.23c-14.17-.25-18.42,12.92-18.5,26.13,8.35-9.16,22.09-11.14,31.86-3.55s11.93,22.05,4.3,32.31c-5.92,7.96-15.27,10.8-25.29,8.49-22.47-5.18-22.05-37.44-16.14-54,3.94-11.05,13.46-17.13,24.87-16.52,10.81.58,19.21,7.97,19.92,18.99-2.99.61-5.56.63-8.24-.3-.69-6.97-5.97-11.42-12.79-11.54ZM697.19,86.86c.15-6.15-2.37-10.83-6.02-13.62-4.26-3.26-9.61-3.83-14.89-2.4-8.66,2.35-12.39,11.25-10.7,19.14,1.8,8.36,9.55,13.33,18.33,12.41,7.75-.81,13.09-7.23,13.29-15.52Z"/><path class="e" d="M923.82,196.71c-3.25,9.86,2.47,25.72-4.61,28.54-2.37.94-5.37.24-6.88-1.24-5.77-5.68,6.54-18.56,7.8-28.18-10.28,1.13-24.95,17.47-29.17,7.91-1.43-3.22-.97-8.03,3.48-8.53,8.46-.96,16.69-.75,25.63-3.14-6.73-5.57-14.37-9.02-21.89-13.39-3.53-2.05-2.66-6.61-.39-8.8,8.34-8.05,14.95,13.1,23.63,18.83,2.62-7.32-2.44-26.56,4.34-28.83,2.86-.96,5.78-.37,7.46,1.52,4.87,5.48-6.93,18.23-8.46,28.29,8.47-1.69,22.29-14.71,27.15-10.88,2.31,1.82,3.18,4.24,2.76,6.96-1.15,7.45-19.37,3.12-28.93,7.4,5.74,6.62,23.95,11.79,23.42,17.58-.26,2.78-2,4.86-3.78,5.82-7.76,4.17-12.82-13.97-21.56-19.84Z"/><path class="h" d="M863.74,90.41l-28.48-.91-8.11,21.11c-2.98.42-5.77.68-9.06-.35l27.18-69.61c3.46-.82,6.62-.5,10.47,0l24.43,70.78c-3.25,1.03-6.37.65-9.66.13l-6.77-21.14ZM860.88,82.44l-10.5-33.39-12.16,33.06,22.65.33Z"/><path class="h" d="M178.61,103.82c-2.65,1.32-6.86.54-10.06.16l24.18-36.96-23.2-34.94c3.29-1.21,6.5-.74,10.25-.48l18.32,28.37,18.05-28.46c3.36-.76,6.48-.88,10.06-.21l-22.95,35.44,24.44,36.73c-3.5.71-6.83.53-10.76.31l-19.09-30.09-19.23,30.15Z"/><path class="h" d="M540.29,105.21c-9.68-2.71-16.14-10.87-16.01-20.1,2.72-.55,5.13-.32,8-.04,1.09,8.17,6.98,13.23,14.91,14.01,9.96.98,17.59-5.65,17.95-15.75.33-9.33-6.05-16.57-15.44-16.9-14.94-.51-11.58,9.64-23.54,6.26l8.07-36.02,35.78.62c.95,2.28.64,4.8.04,7.43l-29.66-.48c-2.08,6.05-3.52,12.21-4.64,19.28,10.46-6.51,23.62-6.25,31.98,2.93s8.13,24.88-.98,33.69c-6.95,6.72-17.11,7.68-26.45,5.06Z"/><path class="h" d="M159.72,96.18c1.31,2.56.68,5.56.27,8.44l-47.06.42-.74-72.45c3.12-.63,6.12-.61,9.17-.07l.82,63.72,37.54-.06Z"/><path class="h" d="M886.26,89.72c2.96-.91,5.91-.54,8.94-.09-.04,3.36.15,6.28.86,9.28,1.26,5.36,5.49,7.56,10.78,7.81,6.09.28,11.5-3.28,11.67-9.89l1.4-54.66c2.64-.59,5.28-.43,8.84.05l-1.24,55.04c-.23,10.32-8.89,16.69-18.67,16.84-6.67.1-13.23-1.01-17.57-6.17-4.09-4.87-5.08-10.98-5.02-18.2Z"/><path class="e" d="M270.04,366.41l-1.62-22.96-7.64,23.06c-.46,1.39-4.51,1.01-6.13.65l-8.52-24.12-.53,24.03c-2.21.58-4.32.51-6.2-.09l-.16-35.36c3-.41,6.11-.48,9.26.03l9.23,24.86,8.33-24.89c3.23-.65,6.13-.61,9.63-.07l.04,35.03c-.98.87-5.58,1.28-5.69-.18Z"/><path class="d" d="M74.08,363.99c-.17,1.19.02,2.38-.02,3.56-.26,7.93,1.81,10.63-2.86,14.95,1.33,1.75,2.37,3.4,3.36,5.06-.73.78.32,1.95.16,2.64l-.48,11.54c-5.83.26-11.53.55-16.99-.15l-.58-51.52c6.12,3.11,10.14,7.55,15.62,10.85,1.26.76,1.98,1.85,1.8,3.08Z"/><path class="e" d="M502.78,103.79l.86-49.04c-5.19-1.09-9.74.34-14.36-.96-.96-.27-.38-3.06-.35-3.9.11-3.51,12.65,1.97,17.22-13.42.45-1.52,5.28-1.28,6.29,0l-1.29,67.18c-2.73,1.14-5.22.68-8.37.14Z"/><path class="e" d="M632.27,106.61l.86-48.86-14.07-1.18c-1.25-.1-1.07-4.23-.08-5.28,7.91.32,15.42-4.35,16.36-12.32,1.87-1.06,4.27-.85,6.6-.22l-1.38,67.94c-2.83.48-4.98.39-8.29-.09Z"/><path class="d" d="M99.68,390.38c.01-1.77.75-3.01.16-4.88-.65-2.08.1-5.06.64-7.02,1.59-1.21,3.07-3.09,5.36-3.68,1.55-.4,2.15.83,2.75,1.38.69.62,1.46,2.37-.26,2.87-1.31.38-2.9.52-3.55,1.71-.42.77-1.69,2.36.48,3.42.73.19,0-1.69.51-1.82,1.03-.26,1.78.19,3.36.38-1.27-1.88,1.28-4.17.81-6.09-.97-3.99-6.77-4.91-9.9-3.4.11-.65-.47-1.45-.28-2.07.47-1.56-.33-2.65.02-3.57,1-2.61,6.03-1.12,5.91-2.77-.05-.68-1.1-1.13-1.28-1.73-.21-.71-.36-1.75.08-2.42.6-.91,1.11-1.88.95-3.01,3.66-2.41,6.43-6.02,11.24-7.79l.55,51.34-17.08-.02c.39-4.06-.54-7.43-.51-10.81Z"/><path class="d" d="M850.74,254.97c8.2-2.54,15.94,2.21,18.16,9.48,2.34,7.64-1.83,15.64-9.5,17.94s-15.19-1.42-17.84-8.4c-2.86-7.53.71-16.39,9.19-19.02Z"/><path class="d" d="M792.73,257.07c8.02-3.09,16.16.99,18.94,8.5,2.63,7.11-.81,15.52-8.57,18.34-6.85,2.49-15.04-.44-18.18-7.29s-.44-16.37,7.81-19.54Z"/><path class="h" d="M343.32,345.82c-7.91.01-2.69,14.58-4.46,19.85-1.25,1.29-4.8.83-6.42.31-1.05-6.62,2.74-21.72-5.11-20-1.72.38-3.11,2.02-3.09,4.33l.1,15.7c-2.15.57-4.03.72-6.61.19.22-8.26-1.44-16.33.06-24.36.35-1.85,6.3-1.35,6.5,1.35,4.38-4.49,9.57-2.8,13.79.4,2.8-1.4,5.41-4.3,9.19-3.33,9.74,2.48,5.81,14.25,6.4,24.9-.4,1.52-5.17,1.68-5.97.29-1.64-5.22,2.56-19.64-4.39-19.63Z"/><path class="c" d="M388.46,408.65c-.84,1.33-4.75.7-6,.34-1.18-7.77,2.7-21.02-5.14-19.94-5.62.78-2.73,15.13-3.02,19.95-2.01.87-4.08.74-6.83.2-.12-8.06-.8-16.26,0-24.44,1.35-1.88,5.64.1,7.02,1.09,3.88-3.44,9.61-3.25,13.34.88,3-1.93,6.18-4.62,10.31-3.19,8.57,2.96,4.83,16.16,5.61,25.39-2.38.63-4.42.58-6.41.01l-.31-15.65c-.06-2.78-1.25-4.59-3.77-4.6-2.1,0-4.26,1.34-4.34,3.98l-.48,15.98Z"/><path class="c" d="M532.33,406.69c-.55,1.45-4.77.85-6.09.49l-.73-17.54c-.09-2.14-2.76-2.61-4.13-2.46-2,.21-3.55,2.04-3.55,4.41v15.93c-2.08.51-4.09.33-6.32.03l-.2-24.65c2.4-1.95,5.79.91,7.94.08,4.78-1.85,9.34-2.41,12.5,2.82,2.34-3.44,4.95-4.46,8.53-4.23,10.66.69,5.86,15.56,7.17,25.53-2.16.56-4.08.53-6.47.03l-.25-15.77c-.04-2.59-1.13-4.42-3.46-4.44-8.09-.07-2.7,13.29-4.94,19.78Z"/><path class="e" d="M269.54,410.34c-11.67,3.79-9.9-7.56-18.2-14.05-6.4.11-3.85,10.62-4.69,14.66-2.43.22-4.26.41-6.77.03v-35.94c2.57-.16,4.73-.46,6.69.37l.46,14.87,13.52-15.08c1.55-1.72,5.49-.31,7.46-.01l-11.76,14.28,13.3,20.86Z"/><path d="M90.58,346.37c.18,1-.12,2.12.37,3.2.23.49.65,1.67,1.62.96-1.35,2.59-.24,5.53-.59,8.97,3.53-.55,5.17-4.05,8.35-3.52,1.74.29,3.34,3,5.13,1.68.16,1.14-.36,2.1-.95,3.01-1.75-.18-2.62-1.63-4.63-2.41.77,2.07,1.02,3.58,1.08,5.87,1.62.17,2.36-.9,3.48-1.05.18.6,1.23,1.05,1.28,1.73.12,1.65-4.91.15-5.91,2.77-.35.92.45,2.01-.02,3.57.15.14-5.9-.04-1.89,1,1.15,1.25,1.27,2.75,2.17,1.07,3.14-1.5,8.93-.58,9.9,3.4.47,1.92-2.08,4.21-.81,6.09-1.59-.18-2.33-.64-3.36-.38-.52.13.22,2.01-.51,1.82-2.18-1.05-.9-2.64-.48-3.42.65-1.2,2.24-1.33,3.55-1.71,1.72-.5.95-2.25.26-2.87-.61-.55-1.2-1.78-2.75-1.38-2.28.59-3.77,2.46-5.36,3.68-.29-.3-.2-.59.08-.86.84-.29,1.06-1.04.32-1.75-.31-.3-.51-.75-1.54-.56-.67.13-.66,1.26-.55,2.1-1.39-.16-3.03.34-4.38-.1-.75-.52-1.34-1.61-2.38-1.81-2.23-.43-3.75-2.28-4.26-4.42.33.04.87.13,1.18,0,2.75.61,3.5,3.92,6.62,4.21l-.69-4.74c2.19-1.51,3-3.92,1.66-5.74-.78,1.23-1.25,2.27-1.76,1.07-1.92-4.51,1.3-1.41-.7-3.19-.9-.8-2.6-.04-2.18.56,1.56,2.19,2.66,3.88,2.74,7.28l-3.87-.06c-.06-1.22.74-2.23,1.87-2.68-.95-.69-1.49-.97-1.86-1.46-.94-1.24-1.87-2.55-2.06-4.12.7-.08.8-1.46.82-2.03.09-2.17-1.35-6.34-3.65-7.81,1.11-.29,2.71-.03,3.09-1.93-3.91-1.99-7.41-2.54-10.97-2.97-.79-.52-1.54-1.11-1.92-1.89-.4-.82.06-1.87.81-2.39,1.34-.95,3.64,1.73,5.09-.19.35-.46-.14-1.33-.64-1.51-.39-.14-1.52-.14-1.98-.79-1.59-2.26.68-4.71,2.03-6.29,1.96-2.3,10.63-2.69,13.5,2.37.96,1.69.53,4.64-1.14,6.6-.76.89-2.68-.19-3.91-.02-1.14.15-1.19,1.39-.83,2.09.23.45,1.19.53,1.57.93ZM91.26,337.6c.04,1.3.75,1.53,1.1,1.72.39.21,1.35-.03,1.45-.53.16-.79-.13-1.46-.54-1.46s-2.04-.33-2.02.27ZM98,361.42c-.19-1.54-2.3-1.52-2.33-.06-.05,2.63,2.28,2.77,2.33.06Z"/><path class="c" d="M283.23,366.58c-3-1.51-4.3-4.52-3.97-7.52.89-8.19,12.95-6.21,15.78-8.66,2.02-1.74-1.18-4.48-2.82-4.63-2.52-.23-4.56.98-5.73,3.48-.69,1.47-5.98,1.78-6.07.16-.33-6.1,6.02-8.7,11.23-8.6,5.42.1,10.44,2.52,10.52,8.6.07,5.58,0,11.26.89,16.96-2.78,1.47-5.56-.55-8.21-.16-3.95.58-7.66,2.35-11.61.37ZM295.35,355.37c-3.09.37-5,.52-7.22,1.33-1.87.68-2.1,2.67-1.81,3.94.33,1.48,1.72,2.05,3.49,2.05,2.16,0,3.86-.71,4.87-2.14.93-1.31,1.56-3.1.67-5.19Z"/><path class="e" d="M475.35,400.79c.98-1.39,5.25.05,5.09,1.35-.59,4.74-5.71,6.31-9.64,6.77-7.31.87-12.61-3.57-13.64-10.82-.78-5.54,1.1-11.63,5.68-14.15,4.8-2.64,11.57-2.47,15.34,1.66,2.86,3.13,3.39,7.33,2.87,11.47l-16.76,1.05c-1.21,1.86,1.76,4.88,3.49,5.29,2.31.55,5.49.35,7.58-2.62ZM474.75,392.3c-.62-4.7-3.51-5.82-6.26-5.48-2.57.32-4.63,2.02-4.81,5.82,3.65.14,7.3.77,11.07-.34Z"/><path class="c" d="M294.7,396.75c.56,8.87-4.66,14.34-12.34,14.61s-12.84-5.11-13-13.12c-.15-7.5,4.15-12.99,11.04-13.71,7.44-.78,13.77,3.8,14.3,12.22ZM287.81,398.81c.09-3.59-.25-6.33-2.87-8.18-1.63-1.15-4.9-1.49-6.95.86s-1.65,5.83-1.52,8.91c.17,3.9,3.29,6.16,6.57,5.71,3.1-.42,4.67-3.34,4.77-7.31Z"/><path class="c" d="M370.39,366.57c-7.42.36-12.26-3.69-13.34-10.37-.9-5.55.21-11.03,4.81-14.17,4-2.73,10.01-2.83,14.34-.4,4.73,2.66,6.11,8.18,5.59,13.77-.57,6.18-4.59,10.83-11.39,11.16ZM375.1,351.84c-.31-4.29-2.31-6.92-5.8-6.85-2.86.05-5.13,1.95-5.62,5.43-.53,3.83-.29,8.64,3.44,10.63,2.54,1.36,5.24-.01,6.41-1.51,1.59-2.03,1.8-4.55,1.57-7.7Z"/><path class="c" d="M506.83,383.06l.19,24.23c-1.11.98-3.14.88-4.65.88-1.05,0-1.71-1.23-2.32-2.78-2.06,2.48-4.29,2.96-7.27,3.11-12.08.61-7.97-15.46-8.62-24.86.96-1.42,5.38-1.58,6.25-.17l.82,17.14c.12,2.47,2.99,2.97,4.85,2.54,1.41-.33,3.52-1.75,3.59-3.97l.51-16.22c2.19-.35,4.2-.67,6.66.1Z"/><path class="c" d="M314.28,409.97c-1.28-7.24,2.73-22.05-5.91-20.12-1.63.36-3.68,1.87-3.73,4.48l-.32,15.66c-2.04.6-3.87.68-6.49.08.5-7.8-.71-15.87.36-23.67.49-3.59,5.56.04,7.43-.42,2.67-.65,6.47-2.87,10.16-1.18,7.59,3.47,4.19,16.54,4.97,25.21-2.42.48-4.44.49-6.46-.05Z"/><path class="h" d="M423.77,384.23c.43-1.47,4.38-1,5.92-.49l.37,24.82c-2.35,1.52-5.11-.8-7.21-.91-4.28,2.13-11.79,3.51-13.96-2.33-2.34-6.3-1.17-14.25-1.3-20.9,1.68-1.4,4.55-.79,6.51-.33l.37,15.22c.07,2.74,1.25,4.94,3.79,4.92,8.58-.08,4.33-14.03,5.51-20Z"/><path class="c" d="M336.23,410.47c-5.37.09-11.45-.72-12.74-6.33-.34-1.5,3.93-3.02,4.91-1.74,1.67,2.17,3.24,2.97,4.96,3.21,2.29.32,6.57-.1,5.63-3.4-1.15-4.03-14.35-.3-14.89-9.42-.25-4.23,2.18-7.46,6.7-8.41,5.38-1.14,11.96.03,14.57,4.75-.29,1.45-3.78,3.59-4.8,2.51-2.5-2.63-8.6-4.69-10.02-.24-1.67,5.24,14.7.3,14.79,10.56.04,4.93-2.89,8.41-9.12,8.52Z"/><path class="c" d="M448.13,408.95c-5.81,1.02-12.76.02-14.66-5.85-.55-1.7,3.75-3.39,5.07-1.66,2.5,3.29,9.46,4.56,10.53-.11-.97-4.38-12.11-.87-14.71-7.97-1.26-3.45-.11-7.19,3.32-9.1,8.66-4.85,18.47,1.24,16.93,4.3-2.74,5.43-12.93-6.27-14.27,1.76-.74,4.43,14.35.59,14.99,9.69.28,4-2.02,8.03-7.19,8.93Z"/><path d="M744.39,383.8c-.89-.17-.77-2.64-.11-2.86,3.61-.46,7.97-.47,11.79.1-.15,1.52,1.95,22.83-3.62,12.22-4.59,3.64-10.13,4.37-15.53,1.47-4.18-2.25-6.63-7.69-6.52-13.32.12-6.37,3.28-12.17,8.87-13.9,5.97-1.84,12.72-.64,15.63,5.26.48.98.96,2.22.7,2.94-.28.8-2.96.93-3.44.03-2.06-3.88-4.74-5.91-8.89-5.55s-7.43,2.99-8.39,7.52c-1.06,5-.46,10.61,3.86,13.72,2.7,1.95,6.06,1.96,8.47,1.1,3.08-1.1,4.93-3.66,5.07-7.73-2.46-1.17-4.74-.4-7.9-1Z"/><path d="M700.41,341.8c-.99-.04-1.1-2.82-.33-3,3.74-.87,7.53-.48,11.74-.08-.12,1.84,1.9,22.7-3.57,12.37-4.78,3.5-10.1,4.31-15.33,1.55-4.35-2.29-6.79-7.62-6.79-13.32,0-6.19,3.07-11.91,8.19-13.8,6.1-2.25,13.04-1.08,16.19,4.69.66,1.2,1.2,3.08.42,3.49-4.73,2.47-2.82-5.69-10.67-5.74-3.13-.02-6.28.84-8.15,4-2.74,4.64-2.77,10.94.44,15.34,2.3,3.16,5.98,4.05,9.55,3.26,3.28-.73,6.14-3.96,5.8-8.15-2.56-.84-4.54-.48-7.52-.6Z"/><path class="f" d="M856.01,395.66c-.01,1.39-3.61,1.07-4.38-.09l-13.73-20.71c-1.6,5.18.97,21.04-1.77,21.45-.66.1-2.4.14-2.38-1.08.14-9.05-.32-17.75.33-26.95.08-1.09,3.71-.56,4.32.37l13.39,20.29c2.16-5.09-1.25-21.16,2.47-21.12,1.12.01,2.04.49,2.02,2.45l-.27,25.4Z"/><path d="M680.67,351.97c0,1.96-2.25,1.6-3.27,1.43-2.03-.34-11.67-17.87-15.06-21.51-1.16,7.09-.05,13.42-.65,20.7-.09,1.07-3.36,1.05-3.36.23,0-8.77-.62-18.33.39-27.25.26-2.33,4.47-.08,5.27,1.3,3.91,6.72,7.67,12.62,12.42,18.96,1.86-4.91-.8-20.54,1.91-20.96,1.72-.27,2.49.54,2.48,2.4l-.12,24.71Z"/><path d="M814.31,354.34c-5.13,0-.91-8.26-4.85-10.9-2.64-1.77-7.45-1.64-10.45-.72-2.08,1.17.25,10.73-1.76,11.4-.88.29-2.98.29-2.98-.93l.09-27.48c7.69.23,19.47-2.6,21.54,5.67.88,3.51-.21,6.56-3.36,9.24,2.35,2.21,4.95,13.71,1.77,13.71ZM811.82,335.71c.52-2.38.33-5.37-2.37-6.1-3.71-1.02-7.5-.76-11.1-.33-.32,3.5-.4,6.26.05,9.42,3.96.34,12.43,1.56,13.42-2.98Z"/><path d="M896.09,353.82c-.13,1.78-3.69.93-4.46-.22-4.68-7.06-8.58-13.77-13.63-20.55l-.51,19.32c-.04,1.45-.44,2.14-1.24,2.29-1.55.29-2.49-.49-2.45-2.31.23-8.75-.2-17.15.62-25.8.1-1.03,3.43-.71,3.98.1l13.98,20.88c1.52-5.63-1.3-20.63,1.91-21.39.56-.13,2.19-.08,2.16,1.16-.17,8.86.34,17.14-.37,26.51Z"/><path d="M718.26,396.11c-6.22.71-12.1-1.24-13.98-6.95-.38-1.14-.94-2.84.12-3.29,5.33-2.25,1.25,7.88,12.44,7.08,2.91-.21,5.17-1.54,5.58-4.13s-1.08-4.76-3.95-5.52l-7.82-2.07c-4.11-1.09-6.17-4.4-5.58-8.32.54-3.55,3.69-5.86,7.76-6.32,5.18-.59,10.45.91,12.17,6.12.32.97.56,2.39-.11,2.76-4.47,2.5-2.04-7.58-12.14-5.61-1.97.38-3.44,1.46-3.91,3.19-2.23,8.16,17.99,2.79,17.64,14.75-.12,4.19-2.93,7.69-8.21,8.29Z"/><path class="f" d="M650.92,379.75c.51,9.44-5.41,15.84-13.66,16.09-8.53.26-14.71-6.5-14.39-15.56.29-8.21,5.75-14.14,13.53-14.37,7.67-.23,14.04,4.98,14.52,13.83ZM646.98,380.81c-.01-7.12-4.4-11.71-10.63-11.44-5.54.24-9.28,4.92-9.49,10.96-.23,6.39,3.46,11.75,9.47,12.01s10.67-4.3,10.66-11.53Z"/><path d="M731.26,354.05c-6.23.85-12.25-1.12-14.2-6.79-.36-1.04-.5-2.34-.24-3.04.29-.77,2.91-.8,3.12-.02,1.29,4.79,4.7,7.34,9.95,6.74,2.72-.31,4.93-1.68,5.3-4.12s-.98-4.65-3.79-5.42l-7.8-2.13c-4.25-1.16-6.27-4.36-5.78-8.35.46-3.71,3.76-5.9,7.97-6.35,5.72-.6,11.68,1.67,12.28,7.96.11,1.2-1.27,1.14-1.86,1.21-3.03.4-1.4-8.23-11.33-5.69-2.1.54-3.29,2.11-3.36,3.73-.32,7.46,17.95,2.32,17.74,13.96-.07,4.16-2.83,7.6-7.99,8.3Z"/><path d="M588.22,395.37c-6.08.57-11.53-1.46-13.43-6.92-.35-1-.67-2.18-.16-3.03.37-.61,1.6-.47,2.4-.46,1.84.01,1.3,8.97,11.39,7.18,2.58-.46,4.35-2.23,4.6-4.4.26-2.34-1.29-4.39-3.85-5.09l-7.83-2.14c-3.83-1.05-6.12-4.03-5.87-7.52.28-3.91,3.35-6.56,7.49-7.08,5.09-.64,10.45.59,12.35,5.7.45,1.21.96,2.67.02,3.12-4.59,2.24-2.19-7.99-12.44-5.54-2.04.49-3.42,1.92-3.59,3.64-.79,8.02,18.69,1.99,17.59,15.02-.35,4.1-3.39,7.02-8.67,7.52Z"/><path d="M879.25,393.92c4.33.3,6.98-1.75,7.25-5.09.56-6.91-8.18-5.18-8.84-6.61-2.1-4.58,7.43.08,8.07-6.58.24-2.51-1.89-4.74-4.9-5-7.21-.62-6.49,5.2-7.93,6.07-.58.35-2.87.4-2.88-.38-.13-6.93,6.55-9.9,12.63-8.67,3.27.66,5.33,2.63,6.4,4.69,1.82,3.5-.94,6.45-2.2,8.86,2.35,2.98,4.89,5.9,3.29,10.17-1.15,3.05-4.15,5.46-8.35,5.82-5.45.47-10.88-1.55-12.56-7.04-.29-.93-.54-1.98.06-2.88.28-.41.89-.25,1.93-.35,2.49-.25.55,6.47,8.02,6.99Z"/><path class="h" d="M362.53,404.23c2.65.08,1.76,2.94,1.63,4.39-.25,2.75-8.12,2.06-10.6-.62-3.87-4.18-.29-14.38-2.53-18.61-1.2-.35-3.54.23-3.99-.59-.5-.92-.32-2.62-.09-3.79.2-1,3.26-.17,4.02-1.31,1.16-1.73-.24-4.87,1.42-5.96,1.2-.79,4.7-2.46,5.32-.72.88,2.49-1.15,7.08,1.21,7.2l4.19.22c1.23.06,1.62,3.31.29,4.34-1.39,1.08-3.45.05-5.41.73.93,8.55-2.39,14.48,4.56,14.7Z"/><path class="f" d="M833.1,337l10.78,16.58c.6.92-2.71,1.28-3.69.32-3.73-3.66-5.95-9.97-10.24-12.8-6.86,1.4-3.31,11.71-4.85,13.02-.62.53-3.31.52-3.3-.91l.21-26.9c0-.89,3.49-.87,3.53,0l.53,12.21c5.34-2.79,12.3-15.68,17.7-12.25l-10.66,10.72Z"/><path d="M615.03,335.98l11.49,16.69c-1,.92-3.61,1.14-4.69-.32l-9.74-13.21c-7.4,3.29-3.24,12.27-5.04,13.81-.6.52-3.26.54-3.25-.52l.15-27.17c0-1.2,3.46-1.14,3.62-.03.59,4.23-.37,7.76.49,12.19,5.15-2.95,12.7-15.93,17.57-12.3l-10.6,10.85Z"/><path d="M906.05,394.23c3.89-.23,6.09-3.11,5.74-6.1-.88-7.5-10.88-2.57-8.88-7.09.65-1.48,7.84-.05,8.07-5.26.12-2.82-2.12-4.69-5.2-4.93-8.27-.64-4.82,7.15-9.47,6.36-.94-.16-1.29-1.19-.96-2.6,1.32-5.59,6.86-7.59,12.26-6.74,3.31.52,5.44,2.57,6.58,4.47,2.15,3.61-.9,6.75-1.97,9.13,1.77,2.81,5.01,5.73,3.25,10.15-1.27,3.19-4.28,5.52-8.7,5.86-6.1.47-12.22-2.46-12.56-9.19-.06-1.2,1.56-1.04,2.12-1.04,2.67.04,1.07,7.5,9.73,6.98Z"/><path d="M648.26,325.72c.11-1.54,3.6-1.35,3.62-.48.2,7.1.81,14.64-.51,21.99-.97,5.38-7.38,6.82-11.98,6.39-5.36-.49-9.49-3.71-9.41-9.32l.26-18.87c.02-1.09,1.54-1.1,2.11-1.04,5.64.6-4.92,25.11,8.04,25.81,2.79.15,6.67-.76,7.27-4.25,1.12-6.53.08-12.91.59-20.24Z"/><path d="M748.91,342.03c-1.91,5.12,1.43,11.97-2.62,11.92-1.38-.02-1.95-.76-1.93-2.59l.33-25.92c8.61.06,19.74-2.49,20.53,7.5.29,3.62-1.18,7.2-5.01,8.48-3.39,1.12-6.73.39-11.3.61ZM759.24,338.2c2.93-2.43,3.05-7.31-.43-8.75-3.3-1.36-7.04-.83-10.18-.41-.27,3.58-.51,6.12.12,9.35,3.49.72,6.58.8,10.5-.19Z"/><path d="M826.31,396.4c-1.98-.8-2-6.16-3.54-7.63s-9.55-1.38-11.05-.15c-2.28,1.87-1.18,9.91-6.9,7.28l10.28-27.41c.38-1.02,4.12-1.11,4.5-.06l9.88,27.1c.38,1.05-2.39,1.17-3.16.86ZM820.82,383.43c-.88-5.08-2.32-7.86-3.56-11.19l-3.96,11.58c1.86,1.01,6.86,1.67,7.53-.39Z"/><path class="f" d="M781.42,396.14c-1.64-.79-1.98-6.35-3.49-7.57-1.74-1.41-9.81-1.38-10.81-.4-1.59,1.56-2.26,6.63-3.43,7.47-.96.69-2.45.85-3.52-.12,3.11-8.93,6.6-18.47,10.28-27.38.39-.95,4.08-.79,4.47.15l9.77,27.09c.4,1.1-2.58,1.11-3.28.77ZM776.65,384.08c-1.3-4.12-2.26-7.85-4.02-11.31-1.87,3.76-3.36,7.24-3.95,11.29,2.97.4,5.14.45,7.98.02Z"/><path class="f" d="M786.42,354.14c-1.62-.74-1.98-6.35-3.49-7.57-1.74-1.4-9.8-1.39-10.81-.4-1.58,1.56-2.29,6.69-3.43,7.46-1.04.71-2.19.65-3.55-.13l10.31-27.38c.43-.93,4.07-.77,4.49.17l9.77,27.09c.4,1.1-2.6,1.08-3.29.76ZM781.66,342.05c-1.25-4.12-2.3-7.82-4.02-11.29-1.88,3.76-3.38,7.25-3.96,11.32,2.95.39,5.13.41,7.98-.03Z"/><path class="e" d="M866.83,341.23l-13.88.36c-.39,3.19-.61,6.28-.09,9.42,5.53.33,10.46-.41,16.02.4.91.13.75,3.19-.35,3.21-6.64.1-12.87.25-19.76-.21l.09-28.17c4.38.21,20.2-1.59,20.26,1.59.06,3.46-11.73.88-16.15,1.85-.4,2.71-.39,5.34-.04,8.17l13.98.52c.72.03.97,2.85-.06,2.87Z"/><path class="d" d="M313.26,366.3c-2.31.45-4.85.88-6.33-.3l-.84-35.38c2.24-.74,4.16-.64,6.57-.07l.6,35.74Z"/><path class="e" d="M612.31,82.45l-25.57-.52c-1.58-1.54-.74-4.83-.26-7.19l25.43.56c1.56,1.14.99,4.75.4,7.15Z"/><path d="M665.79,393.9c-.16,2.06-3.44,2.09-3.56.53-.65-8,.6-15.37-.45-23.3-.24-1.92-8.08-.03-8.76-1.37-.37-.72-.58-2.97.76-2.97l19.08.08c1.14,0,1.98-.04,2.24.43.47.86.35,1.75.18,2.36-.45,1.69-7.71-.52-8.77,1.43-1.02,7.58-.1,14.64-.73,22.81Z"/><path d="M606.39,391.38c4.27.98,14.24-1.09,14.42,1.47.05.68.25,2.2-.99,2.26-6.09.26-11.61.26-17.6-.23.04-9.55-.23-18.6.31-27.78.06-.99,3.46-1.01,3.47.02l.39,24.27Z"/><path d="M796.65,394.97c-.02,1.68-2.53,1.46-3.71.99l-.15-24.43c-2.99-1.45-8.71.55-9.19-1.72-.3-1.41.43-2.41,2.16-2.38l18.09.22c1.5.02,2.25.34,2.38,1.17.64,4.01-5.37,1.19-9.33,2.65l-.25,23.51Z"/><path class="f" d="M291.79,49.5c-1.17.6-3.58.41-4.8.82,4.03-9.73-5.59-1.47-7.97-12.32-.2-.92-2.47-1.93-1.77-3.04.86-1.37,9.81-1.07,10.48-1.01,4.99.45,7.83,6.34,6.92,10.56-3.02.85-3.57,2.96-2.86,4.99Z"/><path class="f" d="M691.88,392.79c-.03,2.03-.11,3.12-1.55,2.94-.66-.08-2.17.1-2.18-1.44l-.06-23.2c-3.64-1.78-8.95.87-9.31-2.23-.07-.58.17-1.85,1.37-1.84l18.77.11c1.26,0,2.23.05,2.41.8.31,1.24.18,2.51-1.54,2.62-2.64.16-4.91-.23-7.59.31l-.32,21.93Z"/><path d="M96.83,413.33c-1.38.18-1.48-4.68-.31-5.6,1.66-1.31,4.34-.5,6.25-1.61.57-.33,1.59,1.24,1.62,1.88.03.7-1.22,1.81-.22,3.41,2.06-.81,1.32-3.13,2.81-4.9,3.94,2.03,6.96,1.14,9.76-2.61,1.04,3.19,1.32,6.39.24,8.64-1.21,2.52-4.12-.6-5.54-.39-1.78.26-3.94,2.23-6.7,1.13-2.37-.94-4.5-.4-7.9.05ZM98.79,408.81c0-.28-.22-.5-.5-.5s-.5.22-.5.5.22.5.5.5.5-.22.5-.5ZM115.91,410.31c0-.61-.5-1.11-1.11-1.11s-1.11.5-1.11,1.11.5,1.11,1.11,1.11,1.11-.5,1.11-1.11Z"/><path d="M71.76,413.34c-2.77,1.29-6.27-.57-8.61-.3l-5.74.66c-.37-2.26-.45-6.21,1.11-8.34,1.16.1,2.29,1.76,2.93,2.03.8.34,1.98-1.87,2.69-1.64l7.15,2.31c1.6.52,1.73,4.69.47,5.27Z"/><path d="M84.49,358.96c.68.65,1.47,1.19,2.47,1.16.87-.03,1.73-.02,2.6.04-.02.57-.12,1.95-.82,2.03-2.56.07-1.3,1.37-.95,2.75.44,1.74,1.85,1.57,3.01,1.38.37.49.91.77,1.86,1.46-1.13.45-1.94,1.45-1.87,2.68-.65,0-1.24.38-1.83.62-.31.12-.85.04-1.18,0-2.52-.32-4.09,1.59-6.99,3.03-.89-2.79.53-4.14.25-5.73l.94.14c.78.73,1.7.67,2.43.64,1.09-.05,3.42-1.6,2.48-2.78-1.51-1.9-4.53-.24-5.75,1,.02.33-.16.68-.11,1-2.04-.31-4.09-.77-6.15-.8l-.08-3.68c.33,0,.67-.07.99-.02.37.05.75.18,1.12.26.64.14,1.51.46,2.2.05.62-.37.6-1.37.61-2.02,1.49-.5,2.83-1.43,3.2-2.97.23-.31,1.27-.51,1.57-.22ZM79.43,365.81c0-.35-.28-.63-.63-.63s-.63.28-.63.63.28.63.63.63.63-.28.63-.63Z"/><path d="M589.47,352.56c-.09.84-3.09.39-3.12-.35-.3-6.72-.15-12.89.05-19.51.03-.93,1.51-.55,1.98-.62,2.42-.36,1.42,17.39,1.1,20.49Z"/><path d="M82.34,411.01c-.08.99.05,1.92-.26,2.13-.35.23-1.46.23-1.67-.08-.41-.6.24-1.8-.57-3.56-2.19.4-.64,2.89-2.28,4.23-.37-1.35-1.37-5.26.04-5.76,3.44-1.22,6.93-.66,9.23,1.45.97-2.48,1.07-3.83,2.41-4.1,2.25-.44,2.58,1.2,3.13,3.3.49,1.88.76,3.85-1.13,4.65-1.61.68-3.38-.22-4.92-1.59-1.3,2-2.39,1.83-2.19-.38-.09-2.13-1.53-2.53-1.81-.29ZM90.94,410.39c-.07-1.5-2.24-1.5-2.3,0-.12,2.69,2.42,2.69,2.3,0Z"/><path d="M94.79,388.31c.12-.43-.09-.83-1.34-1.29l.02-.94c.45.09,1.25.52,1.81,1.09.31.31.37.84-.49,1.15Z"/><path d="M99.84,385.49c.59,1.88-.15,3.12-.16,4.88-1.93.91-2.36,3.07-3.96,5.05-2.56,3.18-8.57,5.26-12.4,3.19s-4.9-6.89-8.61-8.42c.16-.68-.89-1.85-.16-2.64.82,1.36,3.06,1.84,3.75,3.44,1.04-1.19,1.21-1.85,1.44-2.6,1.01-.15,2.01-.42,2.92-.9,1.33,1.43,2.47,2.53,2.3,5.62l2.45-3.01c.85-1.04,2.61,1.44,3.46,1.43,1.13-.84,1.5-3.45,3.91-3.22.07,5.82-1.76,5.19-3.8,6.18-3.04,1.47-5.79.95-9.56-.5.77,3.94,4.46,4.55,7.79,3.7,5.26-1.33,10.19-7.82,8.77-11.62-.64-1.71-1.54-4.47-4.24-4.57.29-.54.72-.98,1.24-1.3,2.35,1.06,2.95,3.75,4.86,5.3ZM83.91,390.31c0-.61-.5-1.11-1.11-1.11s-1.11.5-1.11,1.11.5,1.11,1.11,1.11,1.11-.5,1.11-1.11Z"/><path d="M418.81,43.36c-.66-.07-1.36-.09-2.07-.51s-.99-1.38-.82-2.3c.29.05.64-.05.94-.06.35-.01.7-.15,1.05-.19,2.77,1,5.24,1.14,8.18-.13,1.71-.22,3.97,1.96,5.75,3.45-3.66,3.25-7.68.33-13.04-.26Z"/><path d="M371.63,331.14c.54-1.3,4.17-.93,5.37-.53,1.35.46.87,3.86.26,5.62-.4,1.15-3.15.7-4.75.47-1.41-.2-1.86-3.2-.89-5.56Z"/><path d="M80.87,351.21c.09.93-.25,1.83-.84,2.06-1.47.57-2.82-.76-5.16.51,3.43.96,6.75,2.06,8.05,5.4-.37,1.54-1.7,2.47-3.2,2.97-1.19.22-2.56.65-2.81,1.98-.37-.08-.75-.21-1.12-.26-.07-2.07,1.36-3.79,3.12-5.32-1.58-1.61-4.54-1.95-4.7-4.25-.15-2.15,2.49-3.18,3.77-4.12,1.04-.76,2.13.76,2.89,1.04Z"/><path d="M361.08,331.1c1.12-1.07,4.41-1.09,5.37-.17s.71,4.08-.18,5.55c-.72,1.17-4.12.7-5.22-.37-.98-.96-1.05-3.97.03-5.01Z"/><path d="M85.9,352.36c-1.35-.86-3.74-.68-5.03-1.14-.76-.27-1.85-1.8-2.89-1.04l.04-2.72c3.56.43,7.06.98,10.97,2.97-.38,1.89-1.98,1.64-3.09,1.93Z"/><path class="g" d="M415.92,40.54c-.17.92.11,1.88.82,2.3s1.41.44,2.07.51c.54,1.62-1.29,2.08-1.83,2.99-.23-1.18-.97-2.22-1.57-3.05-1.6-2.19-7.54,1.47-5.65-2.53,1.05-2.22,3.07-.81,6.16-.24Z"/><path d="M74.29,405.3c2.65-1.3,1.74,9.71.35,9.64-1.36-.19-1.07-9.29-.35-9.64Z"/><path d="M414.79,103.08c-.17.37.02.99-.2,1.32-3,.11-5.93-.77-8.86-1.53,3.3-1.8,6.7.07,9.07.21Z"/><path class="c" d="M586.9,324.95c1.08-1.39,2.64-.46,2.78.18.21.97.3,2-.02,2.56-.52.91-1.86,1.09-2.4.69-.81-.6-1.5-1.97-.36-3.42Z"/><path d="M92.58,350.53c-.97.71-1.39-.47-1.62-.96-.5-1.08-.19-2.2-.37-3.2,1.35-.41,2.53.09,2.26,1.44-.19.92.13,1.95-.27,2.72Z"/><path d="M74.87,367.57h-.82c.04-1.2-.15-2.38.02-3.57.24-.02.48-.11.71-.11l.08,3.68Z"/><path class="g" d="M417.91,40.3c-.35.04-.69.17-1.05.19.28-.35.59-1.06,1.09-1.16l-.04.97Z"/><path class="g" d="M329.54,261.89c-10.49,23.6-33.68,33.3-58.14,29.86-8.48-1.19-14.37-7.78-14.65-16.6l-3.86-120.63c7.51-.56,14.46-1.13,21.94-1.13,21.38-.02,40.04,11,50.72,29.35,13.04,22.41,14.18,56.25,3.99,79.14Z"/><path class="g" d="M120.36,300.53c-27.73,1.95-44.71-17.84-51-41.88-7.13-27.24-7.15-70.24,14.77-91.11,15.76-15.01,41.19-16.43,58.44-3.12,9.35,7.21,14.99,17.38,18.6,28.58,11.47,35.6,8.96,104.05-40.8,107.54Z"/><path class="g" d="M411.79,98.66c-4.15-.19-5.84,3.16-8.6,4.52-4.63,2.28-11.03-2.23-12.92-6.91,10.36-7.33,9.94-3.09,21.52,2.39Z"/><path class="g" d="M303.08,66.02c-2.2,4.1-6.83,3.32-9.24,1.81-3.34-2.09-5.18-6.53-3.06-9.57,1.7-.59,4.9-1.6,6.98-1.42,3.62.31,7.16,5.73,5.31,9.18Z"/><path class="g" d="M389.63,52.63c2.18,4.68,7.35,7.07,5.62,8.88-2.65,2.78-3.49-2.53-9.37,1.33.05-4.46,1.08-7.64,2.96-10.24l.8.02Z"/><path d="M389.63,52.63l-.8-.02c.18-2.36-.66-3.98.53-5.37.99,2.11.16,3.8.27,5.39Z"/><circle cx="405.29" cy="34.81" r=".5"/><path class="g" d="M715.55,283.37c-34.32,12.45-27.07-81.95,7.19-95.95,33.27-13.59,28.7,82.92-7.19,95.95Z"/><path class="g" d="M78.22,67.28c-7.43.5-14.33.46-21.75.23l-.38-26.4c7.5-.28,14.74-.58,22.07-.28s12.4,6.01,12.31,13.35-4.33,12.56-12.25,13.09Z"/><path class="g" d="M697.19,86.86c-.2,8.29-5.54,14.71-13.29,15.52-8.77.92-16.53-4.05-18.33-12.41-1.69-7.88,2.03-16.79,10.7-19.14,5.28-1.43,10.63-.86,14.89,2.4,3.66,2.8,6.17,7.47,6.02,13.62Z"/><polygon class="g" points="860.88 82.44 838.22 82.11 850.38 49.05 860.88 82.44"/><circle class="g" cx="82.79" cy="390.31" r="1.11"/><path class="g" d="M81.03,368.37c.28,1.58-1.14,2.94-.25,5.73,2.91-1.44,4.47-3.35,6.99-3.03.5,2.15,2.03,4,4.26,4.42.04.64.09,1.4-.4,2.08-.32.44-1.1.6-1.74.65-3.18-6.13-5,1.35-9.35-4.76-1.68.91-3.06,1.98-4.14,3.66,1.95-.14,3.56.62,4.33,2.18-.06,4.61-6.42,1.33-4.69,6.81,1.65.69,2.85,1.32,3.73,2.29-.22.75-.39,1.41-1.44,2.6-.69-1.6-2.94-2.08-3.75-3.44-.99-1.65-2.03-3.31-3.36-5.06,4.67-4.32,2.6-7.02,2.86-14.95h.82c2.06.04,4.11.5,6.15.81Z"/><path class="g" d="M94.79,388.31c.86-.3.8-.84.49-1.15-.56-.56-1.36-1-1.81-1.09.21-.91.34-1.83.41-2.76l-.13-1.1v-.73c2.71.11,3.61,2.86,4.25,4.57,1.42,3.8-3.5,10.29-8.77,11.62-3.33.84-7.02.24-7.79-3.7,3.77,1.45,6.52,1.97,9.56.5,2.04-.99,3.87-.35,3.8-6.18Z"/><path class="g" d="M88.95,371.07c.6-.24,1.18-.63,1.83-.62l3.87.06c-.08-3.4-1.18-5.09-2.74-7.28-.42-.59,1.28-1.36,2.18-.56,1.99,1.78-1.22-1.33.7,3.19.51,1.2.98.16,1.76-1.07,1.33,1.82.53,4.23-1.66,5.74l.69,4.74c-3.12-.29-3.87-3.59-6.62-4.21Z"/><path class="g" d="M93.45,387.02c1.25.46,1.46.87,1.34,1.29-2.41-.23-2.79,2.38-3.91,3.22-.86.02-2.62-2.46-3.46-1.43l-2.45,3.01c.17-3.09-.96-4.19-2.3-5.62-1.86-1.99-3.32-2.44-5.96-2.66,1.36-2.83,3.42-.55,5.05-1.13,6.85-2.45,3.04.9,11.7,3.3Z"/><path class="g" d="M98.79,377.4c.56.07,1.18.69,1.77.22-.28.27-.37.55-.08.86-.54,1.96-1.29,4.94-.64,7.02-1.9-1.55-2.51-4.24-4.86-5.3-.34-.93-.52-1.91-.58-2.9,1.35.44,2.99-.06,4.38.1Z"/><path class="g" d="M104.52,360.67c-.44.67-.29,1.71-.08,2.42-1.12.15-1.86,1.21-3.48,1.05-.06-2.29-.3-3.8-1.08-5.87,2.02.78,2.88,2.23,4.63,2.41Z"/><path class="g" d="M99.78,371.16c-.19.62.39,1.42.28,2.07-.9,1.69-1.02.18-2.17-1.07-4.01-1.04,2.04-.86,1.89-1Z"/><path d="M94.41,377.3c.06.99.24,1.96.58,2.9-.52.32-.95.76-1.24,1.3v.73c-1.02.18-2.29-.4-3.04.73,1.41.75,2.32.24,3.17.37-.06.93-.19,1.85-.41,2.76l-.02.94c-8.65-2.4-4.84-5.75-11.7-3.3-1.62.58-3.69-1.71-5.05,1.13,2.64.22,4.1.67,5.96,2.66-.91.48-1.91.75-2.92.9-.87-.97-2.07-1.6-3.73-2.29-1.73-5.48,4.63-2.2,4.69-6.81,2.67-.13,5.55.98,8.35,1.73.83-.43.7-2.04.82-2.82.64-.05,1.43-.21,1.74-.65.49-.68.44-1.44.4-2.08,1.04.2,1.64,1.3,2.38,1.81Z"/><path class="g" d="M85.9,352.36c2.3,1.47,3.74,5.64,3.65,7.81-.86-.06-1.73-.07-2.6-.04.02-.54-.13-1.02-.06-1.37.15-.81-.4-1.86-1.54-1.42-.49.19-1.53.98-.87,1.63-.31-.29-1.35-.09-1.57.22-1.29-3.34-4.62-4.43-8.05-5.4,2.35-1.27,3.69.06,5.16-.51.59-.23.93-1.13.84-2.06,1.29.47,3.68.29,5.03,1.14Z"/><path class="g" d="M88.73,362.19c.19,1.58,1.12,2.88,2.06,4.12-1.16.2-2.57.36-3.01-1.38-.35-1.38-1.61-2.68.95-2.75Z"/><path class="g" d="M98,361.42c-.04,2.71-2.38,2.56-2.33-.06.03-1.46,2.14-1.48,2.33.06Z"/><path class="g" d="M91.26,337.6c-.02-.6,1.62-.26,2.02-.27s.7.66.54,1.46c-.1.5-1.06.73-1.45.53-.35-.19-1.06-.42-1.1-1.72Z"/><path class="g" d="M100.57,377.62c-.6.47-1.21-.15-1.77-.22-.11-.84-.11-1.97.55-2.1,1.03-.19,1.23.26,1.54.56.74.72.52,1.47-.32,1.75Z"/><path class="g" d="M295.35,355.37c.9,2.08.26,3.88-.67,5.19-1.01,1.43-2.72,2.14-4.87,2.14-1.77,0-3.17-.58-3.49-2.05-.28-1.28-.06-3.26,1.81-3.94,2.22-.81,4.13-.96,7.22-1.33Z"/><path class="g" d="M474.75,392.3c-3.77,1.11-7.42.48-11.07.34.18-3.81,2.24-5.5,4.81-5.82,2.75-.34,5.64.78,6.26,5.48Z"/><path class="g" d="M287.81,398.81c-.1,3.96-1.68,6.88-4.77,7.31-3.27.45-6.4-1.81-6.57-5.71-.13-3.07-.5-6.59,1.52-8.91s5.32-2.02,6.95-.86c2.62,1.85,2.96,4.58,2.87,8.18Z"/><path class="g" d="M375.1,351.84c.23,3.15.02,5.68-1.57,7.7-1.17,1.49-3.86,2.86-6.41,1.51-3.73-1.99-3.97-6.8-3.44-10.63.48-3.48,2.75-5.38,5.62-5.43,3.48-.06,5.48,2.56,5.8,6.85Z"/><path class="g" d="M811.82,335.71c-.99,4.55-9.46,3.32-13.42,2.98-.45-3.16-.37-5.92-.05-9.42,3.61-.42,7.4-.68,11.1.33,2.69.74,2.89,3.72,2.37,6.1Z"/><path class="g" d="M646.98,380.81c.01,7.22-4.44,11.8-10.66,11.53s-9.7-5.62-9.47-12.01c.21-6.04,3.95-10.72,9.49-10.96,6.24-.27,10.62,4.32,10.63,11.44Z"/><path class="g" d="M759.24,338.2c-3.92.99-7.01.9-10.5.19-.63-3.23-.39-5.77-.12-9.35,3.14-.42,6.89-.95,10.18.41,3.48,1.43,3.37,6.32.43,8.75Z"/><path class="g" d="M820.82,383.43c-.67,2.06-5.66,1.4-7.53.39l3.96-11.58c1.24,3.33,2.69,6.11,3.56,11.19Z"/><path class="g" d="M776.65,384.08c-2.84.43-5.01.38-7.98-.02.59-4.05,2.08-7.54,3.95-11.29,1.77,3.46,2.72,7.19,4.02,11.31Z"/><path class="g" d="M781.66,342.05c-2.85.45-5.04.42-7.98.03.58-4.06,2.07-7.55,3.96-11.32,1.73,3.47,2.77,7.17,4.02,11.29Z"/><circle class="g" cx="114.79" cy="410.31" r="1.11"/><circle cx="98.29" cy="408.81" r=".5"/><path class="g" d="M81.97,368.51c-.08-.49-.34-.97-.83-1.14,1.22-1.23,4.23-2.9,5.75-1,.94,1.18-1.39,2.73-2.48,2.78-.73.04-1.65.09-2.43-.64Z"/><path d="M86.96,360.12c-1,.03-1.78-.51-2.47-1.16-.66-.65.38-1.44.87-1.63,1.14-.44,1.69.61,1.54,1.42-.06.35.08.83.06,1.37Z"/><path class="g" d="M79.72,362.15c0,.66,0,1.65-.61,2.02-.69.42-1.56.09-2.2-.05.26-1.32,1.62-1.76,2.81-1.98Z"/><circle cx="78.79" cy="365.81" r=".63"/><path d="M81.97,368.51l-.94-.14c-.06-.32.12-.67.11-1,.49.17.75.65.83,1.14Z"/><path class="g" d="M90.94,410.39c.12,2.69-2.42,2.69-2.3,0,.07-1.5,2.24-1.5,2.3,0Z"/><path d="M89.89,378.22c-.12.77,0,2.38-.82,2.82-2.8-.75-5.68-1.85-8.35-1.73-.76-1.56-2.38-2.32-4.33-2.18,1.08-1.68,2.46-2.76,4.14-3.66,4.35,6.1,6.17-1.37,9.35,4.76Z"/><path d="M93.74,382.22l.13,1.1c-.85-.13-1.76.38-3.17-.37.75-1.12,2.03-.55,3.04-.73Z"/></svg>